<?xml version="1.0" encoding="UTF-8" standalone="no"?>
<!-- Created with Inkscape (http://www.inkscape.org/) -->

<svg
   xmlns:svg="http://www.w3.org/2000/svg"
   xmlns="http://www.w3.org/2000/svg"
   version="1.0"
   width="4446.0425"
   height="2133.6426"
   id="svg2">
  <defs
     id="defs4" />
  <g
     transform="matrix(4,0,0,4,-15.85704,-7.5005736)"
     id="layer3"
     style="display:inline">
    <path
       d="m 86.27677,526.98718 -0.17857,1.91965 -0.84821,0.9375 -0.89286,1.875 -1.5625,1.42857 -0.53571,0.84821 -0.84822,0.44643 -2.58928,0.66964 -1.33929,0.66965 -2.72321,0.44643 -0.625,1.47321 -2.00893,1.02679 -2.58929,0.71428 -1.69643,0.58036 -2.99107,2.94643 -2.32143,2.27678 -1.25,1.29465 -0.44642,3.57142 1.07142,0.80358 0,1.33928 -0.89285,1.02679 -1.02679,0.9375 -1.38393,1.11607 -1.65178,0.40178 -1.42857,0.89286 -3.92858,0.26786 -4.6875,0 -3.52678,0.80357 -2.1875,0.98214 -1.60714,0.84822 -1.47322,0.84821 -1.83036,1.60714 -0.71428,0.625 0.13393,0.66965 1.65178,0.40178 -0.17857,0.44643 -0.71428,0.58036 -2.1875,0.66964 -1.83036,1.16072 -2.94643,1.07142 -1.65179,0.80358 -3.25893,1.16071 -3.16964,0.625 -2.67857,1.42857 -3.21429,0.75893 -2.45535,0.75893 -0.625,2.09821 -0.3125,1.83036 -1.11607,0.89286 -0.9375,0.75893 -2.58929,0.71428 -1.875,0.84822 -0.71429,0.71428 -3.70535,0.17857 -1.25,0.44643 -5.13393,0.22322 -3.03572,0.17857 -0.71428,0.80357 -1.33929,1.33928 -1.20535,1.11608 -1.33929,1.5625 -1.16071,0.44642 -2.8125,0 -1.25,-0.89285 -1.02679,-0.35715 -2.72321,0.0893 -0.80358,1.11607 -0.71428,-0.13393 -1.16072,-1.02678 -1.25,-0.13393 -2.23214,0.98214 -1.69643,0.80357 -2.14285,0.89286 -1.25,1.29464 -3.16965,0.35715 -2.67857,0.89285 -0.89286,0.71429 -1.25,0.35714 -0.80357,0.89286 -0.58035,2.09821 -0.49108,0.75893 -0.9375,0.75893 -0.625,1.29464 -0.53571,1.07143 -2.00893,0 -1.83036,-0.71428 -1.91964,-1.74108 -1.69643,-1.51785 -2.36607,-0.40179 -1.02678,-1.07143 -3.125,0 -1.91965,1.02679 -3.125,0.58036 -2.63393,1.07142 -2.09821,1.38393 -3.39286,1.07143 -1.65178,2.1875 -1.07143,0.89286 -0.75893,0.3125 -0.75893,0.89286 -3.57143,-0.22322 -0.9375,1.16072 -0.3125,1.25 -0.58035,1.5625 -2.23215,0.0893 -0.84821,0.80357 -0.35714,1.11607 -0.40179,1.11608 -1.91964,0.35714 -1.29465,-0.80357 c 0,0 -3.08035,-0.44643 -3.34821,-0.44643 -0.26786,0 -0.53571,-0.75893 -0.53571,-0.75893 l -2.27679,-0.35714 -1.5625,-1.16072 -3.75,0.22322 -0.75893,0.80357 -2.54464,0.0893 -0.53571,0.89286 -1.42759,1.48711 -0.39459,0.6787 c 0,0 0.88388,0.69448 0.94702,0.75761 0.0631,0.0631 0.12802,0.49409 0.12802,0.49409 l -0.8225,0.54763 -0.75762,1.38896 -1.76776,0 -3.34613,3.3777 -1.42053,2.39911 -0.82582,1.05659 -2.32143,0.35714 -2.67858,-0.0893 -1.69642,-1.25 -1.42858,-0.71429 -1.42857,-1.07143 -4.91071,-0.44642 -2.41072,-0.80358 -1.51785,-0.53571 -3.03572,-0.17857 -2.14285,-0.35714 -2.5,-1.60715 -3.21429,-0.625 -3.48214,-0.53571 -2.23215,-1.33929 -1.60714,-0.0893 -1.42857,-0.98215 -4.55357,0 -3.125,0 -1.69643,0.89286 -1.51786,1.07143 -1.33928,1.16071 -0.53572,1.78572 -0.26785,1.78571 -1.25,2.14286 -1.60715,-0.17857 -0.89285,-0.98214 -1.69643,-0.26786 -2.58929,-0.71429 -2.32143,-0.80357 -1.875,-0.80357 0,-2.14286 -0.44643,-1.96428 -0.80357,-2.58929 -3.39285,-4.46428 -0.26786,-5.35715 -1.07143,-2.23214 -1.07143,-2.85714 -0.80357,-2.85715 -0.0893,-1.875 -0.80357,-2.76785 0,-5.98215 -1.16071,-0.44642 -1.60714,-1.16072 -1.51786,-1.33928 0,-3.03572 -0.89286,-0.53571 -0.0893,-2.58929 0,-2.58928 1.07142,-1.42858 0.71429,-0.89285 0,-2.23215 0.71429,-1.33928 0.71428,-1.60714 1.51786,-1.42858 2.14286,-1.78571 1.96428,-2.23214 1.60714,-1.69643 2.67858,-1.33929 2.32142,-1.07143 1.60715,-0.44642 2.41071,-0.53572 1.16072,-0.80357 3.66071,-0.44643 1.60714,-0.71428 0.89286,-0.89286 0.98214,-0.17857 1.96429,-1.07143 0.53571,-0.26786 0,-0.89286 -0.89285,-0.53571 -0.0893,-2.32143 0,-1.69643 -0.98214,-0.80357 -0.44643,-0.80357 0,-2.94643 0.89286,-0.80357 1.96428,-1.42857 1.16072,-1.25 0.17857,-1.42857 1.07143,-0.44643 -0.26786,-3.21429 1.16071,-0.89285 0,-2.41072 -1.07143,-0.89286 -1.33928,-1.42857 0.44643,-2.41071 0.98214,-0.80357 1.07143,0 0.71428,-0.98215 1.07143,-0.26785 0.17857,-0.71429 0.98215,0 0.625,0.89286 0.80357,0.44643 0.53571,-2.14286 0.44643,-1.33929 1.51786,-1.07142 1.69643,-0.17858 1.16071,-0.98214 4.01786,0 1.51786,1.16072 0.625,0.35714 0.80357,-1.42857 2.94643,-0.98215 4.73214,-1.69642 0.53571,-0.89286 1.875,-0.89286 1.60715,-1.16071 0.35714,-1.51786 1.07143,-1.33929 0.80357,-0.26785 0.80357,-0.80357 1.51786,0.17857 0.98214,0.625 0.98214,0 1.51786,-2.32143 0.53571,-0.80357 -1.07142,-1.33929 0,-3.125 1.42857,-1.25 0.53571,-1.25 1.78572,-1.69643 2.05357,-2.41071 1.42857,-0.98214 -1.07143,-1.69643 -0.0893,-3.03572 -0.89285,-0.89285 -0.26786,-2.85715 -1.07143,-1.875 -0.26786,-5.08928 0,-3.39286 0.98215,-1.16071 2.32143,0 1.69643,-0.80358 1.60714,-0.17857 1.78571,-1.16071 2.14286,-0.98214 0.89286,-0.71429 1.51785,-0.98214 1.33929,-1.07143 0.80357,-0.98214 1.07143,-0.0893 0.80357,-0.89286 0.625,-1.60714 0.803572,-0.98214 -0.178572,-2.32143 0.982143,-0.80357 0.08929,-1.25 1.071428,-1.07143 1.517858,-1.16072 2.114695,-0.0713 3.25143,0.0947 0.63134,0.59978 0.88388,0.66291 0.28411,-0.66291 0.34724,-1.13642 c 0,0 0.1894,-3.31456 0.34724,-3.44083 0.15784,-0.12627 1.10485,-1.10486 1.10485,-1.10486 0,0 1.1245,-2.17322 1.48164,-3.06608 0.35715,-0.89285 1.42857,-1.25 1.42857,-1.25 l 2.07742,-0.82938 1.42053,-0.91545 2.71478,-0.75762 0.26049,-0.71183 c 0,0 2.1875,0.0893 2.27678,-0.0893 0.08929,-0.17857 0.44643,-1.42857 0.44643,-1.42857 l -1.47321,0 c 0,0 -1.96429,-0.0446 -2.14286,-0.0446 -0.17857,0 -2.1875,0 -2.1875,0 l -1.47321,1.11607 -2.99107,0.35714 -1.65179,-0.625 -0.98214,-1.83035 -0.44643,-2.09822 -1.42857,-2.14286 -1.74107,-2.94642 -1.47322,-1.83036 0.22322,-4.46429 1.07142,-1.16071 1.47322,-1.91964 -0.08929,-4.01786 0.08929,-2.05357 1.02678,-1.47322 0.80358,-0.58035 2.99107,-0.0893 2.58928,-0.71429 1.29465,-1.20535 0.40178,-2.05357 1.11607,-0.75893 1.60715,-0.625 2.27678,-1.02679 0.9375,-0.71428 2.99107,-0.22322 3.48215,0.17857 1.60714,1.02679 1.42857,0.66964 1.20536,0.84822 1.51785,1.07142 0.84822,0.58036 1.07143,0.40179 1.02678,1.25 1.875,0.44643 1.74107,1.02678 0.9375,0.9375 1.42858,0.44643 1.78571,0.71429 1.20536,1.25 0.49107,0.49107 2.5,0.0446 0.9375,0.49107 1.96428,0.53572 2.00893,0.58035 1.02679,0.44643 1.69643,0 0.98214,-0.89286 1.20536,-0.44642 2.36607,0.13392 1.02678,0.89286 2.23215,0.40179 1.60714,0.44643 2.14286,0.26785 1.33928,1.02679 1.20536,0.17857 0.89286,1.02679 1.60714,0.71428 1.20536,0.44643 0.35714,1.91964 0.625,1.38393 0.13393,1.20536 1.16071,0.22321 0.71429,-0.9375 3.03571,-0.26785 1.65179,-1.02679 3.08036,0 1.38392,-0.71429 2.99108,-0.0893 0.625,0.80357 1.25,0.0446 1.02678,-0.84821 1.16072,-0.0893 1.07142,0.80357 0.84822,1.33929 0.58036,1.25 1.20535,1.78571 1.11607,0 0.98215,0.9375 1.29464,0.0446 0.89286,-0.84822 1.25,-0.3125 0.84821,-0.9375 1.11607,0 0.53572,1.11607 0.58035,0.0893 0.71429,-1.07143 0.98214,-0.0893 0.71429,-0.71429 0.75893,-1.25 0.53571,-1.38393 0.71429,-0.89286 0.98214,-0.84821 1.38393,-0.26786 0.625,-0.66964 0.58036,0.13393 0.9375,1.20536 0.53571,0.89285 1.65179,0.35715 2.63392,0.26785 1.5625,0.9375 1.33929,0.53572 1.07143,0.9375 1.02678,0.71428 1.69643,0.75893 2.00893,0.0893 0.98215,-0.71429 1.02678,-1.20536 1.11607,-2.09821 0.04465,-0.89286 0.978617,-0.99584 1.073287,0.15784 0.34724,1.16799 0.915451,0.94702 0.03157,5.55584 0.06313,2.0203 2.020305,0.34724 1.673065,0.0947 0.129471,3.07098 0.892857,1.16072 0.357143,0.89285 0.446428,0.44643 0.446429,3.39286 0.625,1.60714 0.446428,4.375 -0.178571,3.92857 -0.892857,1.69643 -0.714286,1.42857 -0.892857,0.98215 -0.982143,0.53571 -0.472224,1.89424 -0.852316,2.02031 -1.894036,0.88388 -0.410374,0.66291 -0.947018,0.66292 -0.726048,-0.31568 -0.69448,-0.72604 -0.0947,0.75761 -0.441942,1.19956 -0.915451,1.89403 -0.757614,1.7362 -2.020305,1.01015 -2.746353,0.91546 -1.60993,0.50507 -3.4724,0.12627 -1.073287,0.66291 -0.631345,1.51523 -0.157836,1.79934 -1.420527,0.47351 -0.820749,2.0203 -1.167989,0.85232 -0.883884,0.56821 0.0947,1.13642 0.947018,0.91545 0.315673,1.8309 0.662912,0.69448 0.473509,0.63135 1.988738,0.2841 0.69448,1.32583 1.073287,0.69448 0.852316,0.85231 0.220971,0.75762 0.915451,0.78918 1.231124,0.34724 1.357392,1.10485 0.568211,0.97859 0.189403,2.80949 0.631346,0.94701 0.662912,1.38896 0.631346,0.85232 0.34724,1.42053 0.820749,0.78918 0.631345,1.29426 1.136422,1.38896 0.789181,1.07328 2.399113,0.0947 1.420527,-0.66292 1.26269,-0.72604 3.12516,-0.22098 2.777919,0.56822 1.104855,0.94701 c 0,0 1.546796,-0.22097 1.673065,-0.22097 0.126269,0 1.673065,-0.85231 1.673065,-0.85231 l 1.546796,-1.04172 3.819639,-0.15784 2.872622,0.1894 0.631345,1.23113 1.483661,0 1.262691,-1.16799 2.367545,0.0316 1.010153,0.85231 1.26269,0.50508 1.294258,1.32582 1.894036,0.72605 0.852317,1.29426 1.641497,0.47351 2.746353,2.17814 0.91545,1.9256 1.420527,2.87262 1.483662,1.60993 0.757614,1.51523 1.609931,1.32583 -0.03157,3.40926 -0.157837,3.78807 0.315673,3.12516 1.957171,0 1.988738,-0.31567 1.191933,0.1306 z"
       transform="translate(195.64287,-86.576469)"
       id="Provincia_di_Imperia"
       style="fill:#e49999;fill-opacity:1;fill-rule:evenodd;stroke:#000000;stroke-width:1px;stroke-linecap:butt;stroke-linejoin:round;stroke-opacity:1;display:inline" />
  </g>
  <g
     transform="matrix(4,0,0,4,-15.85704,-7.5005736)"
     id="layer4"
     style="display:inline">
    <path
       d="m 497.20165,179.63106 0.29835,0.0207 -0.3125,-1.33928 -1.11607,-0.22322 -1.25,-0.75892 -1.42857,-1.02679 c 0,0 -0.75893,-0.9375 -1.07143,-0.9375 -0.3125,0 -1.78571,-0.89286 -1.96429,-1.07143 -0.17857,-0.17857 -1.91964,-1.25 -1.91964,-1.25 l -1.07143,-0.9375 -2.23214,-1.07143 -1.16071,-1.20535 -0.9375,-1.83036 -1.20536,-1.69643 -1.33929,-2.00893 c 0,0 0.26786,-3.25893 0.26786,-3.57143 0,-0.3125 -1.11607,-3.08035 -1.11607,-3.08035 l -0.0893,-2.5 -0.89285,-1.29465 c 0,0 -0.40179,-2.5 -0.49108,-2.67857 -0.0893,-0.17857 -0.9375,-0.84821 -0.9375,-0.84821 l -0.9375,-0.89286 0.13393,-0.58036 1.29465,0.35715 1.38392,0.98214 1.96429,0.17857 1.02679,-0.40179 2.32142,-0.625 2.23215,0.17858 -0.0446,-2.14286 -1.25,-0.84822 0,-1.38392 2.5,0 0.89286,-0.80358 6.83036,0 1.42857,-1.11607 6.11607,-0.17857 1.96429,-1.38393 1.69643,-0.66964 1.47321,-1.20536 1.5625,-0.44643 1.33929,-1.47321 0.67095,-3.47278 c 0,0 0.44194,-0.3788 0.50508,-0.88388 0.0631,-0.50508 0.31567,-2.20971 0.31567,-2.20971 l -0.94702,-0.56821 -1.57836,-0.50507 0,-4.98763 c 0,0 -0.88389,0.12627 -0.88389,-0.88389 0,-1.01015 -0.12627,-5.99778 -0.12627,-5.99778 l 1.13643,-1.8309 0.25253,-1.38896 -1.19955,-0.75761 -0.12627,-2.14658 -0.63135,-0.56821 0.0631,-2.39911 -1.01015,-0.94702 -0.56822,-1.38896 -0.88388,-1.45209 -6.31345,-0.31567 -4.41942,0.56821 -0.88388,0.63134 -1.57837,0.12627 -0.88388,0.75761 -1.13642,0.0631 -0.50508,-0.88388 -0.82075,-0.37881 -0.25254,-0.75762 -0.69448,0 0,-1.19955 0.94702,-0.31567 0.12627,-0.69448 -1.57836,0.12626 -1.89404,0.37881 -1.13642,0.82075 -0.50508,0.12627 -1.07328,0.88388 -0.94702,1.13642 0,1.07329 1.01015,0 0.25254,1.07329 1.01015,0.75761 -0.1894,0.50508 -0.94702,0.56821 -1.89403,-0.12627 -1.83091,0 -1.13642,-1.13642 -0.94702,0 c 0,0 -1.70463,-0.63135 -1.95717,-0.63135 -0.25253,0 -0.50507,-1.19955 -0.50507,-1.19955 l -1.32583,-1.95717 -0.82075,-1.95717 0.12627,-1.8309 -1.00226,-0.21308 -1.01804,0.90756 -1.70464,0.12626 -1.01015,0.94702 -1.13642,0.12627 -0.82075,0.88389 -1.32582,1.07328 -3.21986,-0.3788 -0.50508,-0.69448 -1.01015,-0.18941 -0.44195,-2.08344 -0.56821,-0.50507 -0.25253,-1.13643 -0.82075,-0.3788 -1.38896,-0.694483 -2.39912,-0.189403 c 0,0 -1.64149,0.631345 -1.89403,0.694479 -0.25254,0.06314 -4.10375,0.883887 -4.10375,0.883887 l -5.05076,0.75761 -5.80838,-0.1894 -1.89403,-1.01015 -2.58852,-0.18941 -0.44194,-0.757613 -1.38896,-0.947018 -0.69448,-1.641498 -1.51523,-0.441942 -0.63134,-1.830901 -0.18941,-1.325825 -1.19955,0 -0.75762,0.820749 -0.3788,0.568211 c 0,0 -1.57837,0.947018 -1.83091,0.947018 -0.25253,0 -1.07328,1.388959 -1.32582,1.578363 -0.25254,0.189403 -1.38896,1.767767 -1.38896,1.767767 l -0.63135,1.578359 -0.63134,1.83091 -0.56821,1.26269 0.1894,5.24016 -0.69448,-0.25254 -0.44194,-1.01015 -1.6415,-0.1894 -1.19955,-1.13642 -1.6415,-0.75762 -2.33598,-0.63134 -2.27284,-1.38896 -2.27285,-0.56821 0.12627,-0.94702 -0.75761,-1.6415 -0.37881,-1.136421 -1.76777,0.252538 -1.07328,0.757613 -2.71479,0.88389 -1.13642,0.12626 -0.69448,1.26269 -0.75761,3.40927 0,5.55584 -0.50508,0.63134 -2.33598,0.0631 -1.26269,0.94702 -0.82075,1.07328 0.12627,1.83091 0.82075,0.63134 1.19956,1.13642 -0.0631,1.70463 -0.88388,0.63135 -3.283,0.31567 c 0,0 -0.63134,0.63135 -0.82075,0.88389 -0.1894,0.25253 -2.33597,0.12627 -2.33597,0.12627 l -0.75762,0.82074 -0.88388,0.94702 -0.94702,1.89404 -1.38896,0.69448 -1.70463,0.75761 -0.50508,0.82075 -1.51523,-0.0631 -1.13642,-1.6415 -0.0631,-2.46225 -1.26269,-2.46224 -1.07329,-2.52539 -0.63135,-2.46224 -2.0203,-0.56821 -1.6415,-0.75762 -1.32583,-1.01015 -3.6618,0.1894 -0.88388,0.75762 -1.89404,-0.18941 -1.8309,-2.08344 -0.31567,-1.13642 -1.4521,-2.90419 -1.01015,-1.01015 -1.89403,-1.45209 -0.63135,-1.19956 -1.57836,0 -0.56821,1.13642 -3.34613,-0.44194 -2.58852,-1.13642 -4.10375,-1.13642 -3.09359,-0.56821 -0.0631,-1.8309 -0.82075,-0.757619 -0.25254,-2.209709 -0.63134,-0.947018 -1.32583,-0.883883 -0.69448,-1.010153 -1.45848,-0.948897 -0.13393,-1.473214 -0.84821,-0.535714 -0.0446,-1.383929 -0.84821,-0.803571 -0.66964,0 -0.53572,1.116071 -1.69643,0.892857 -1.33928,1.205358 -1.38393,1.026785 -0.84821,1.339286 -2.14286,1.294643 -2.72322,0.178571 -1.51785,1.026786 -0.625,2.276786 -0.625,2.723214 -1.11607,1.47321 -0.625,1.38393 0,3.16965 0.53571,0.98214 0.35714,1.78571 1.16072,1.29465 0.84821,1.69642 -0.9375,0.9375 -0.84821,0.71429 -0.44643,1.20536 -0.9375,0.0893 -2.00893,1.29465 -1.78571,0.80357 -3.79465,0.35714 -0.22321,3.79464 -0.13393,1.65179 -0.84821,0.40178 0.13392,1.83036 0.80358,0.84822 0.66964,0.84821 1.11607,0.98214 1.25,0.35715 1.07143,0.9375 0.89286,1.07142 0.0446,3.16965 -1.16072,1.16071 0.58036,0.9375 1.5625,1.33929 1.02679,1.29464 1.02678,3.03571 1.11607,1.5625 c 0,0 0.89286,1.20536 1.02679,1.38393 0.13393,0.17857 -0.13393,2.27679 -0.13393,2.27679 l -0.625,0.53571 -0.35714,1.33929 -0.89286,0 -0.71428,0.71428 -2.90179,2.90179 -0.22321,5.26786 -1.47322,1.74107 -0.9375,1.16071 -1.69643,1.96429 -1.65178,1.11607 -1.07143,1.74107 -2.23214,1.42857 -1.5625,-0.17857 -0.71429,-1.07143 -1.07143,-0.13393 -0.75893,0.89286 -2.8125,1.25 -1.875,1.47322 -1.07143,2.36607 -1.70256,1.41293 -4.16688,0.63134 -0.25254,4.9245 -0.50507,0.88388 -2.27285,1.6415 -1.89403,1.6415 1.38896,1.64149 0.88388,1.89404 1.26269,1.26269 0.25254,4.79823 -1.01015,1.13642 -1.01015,2.77792 -1.13643,1.38896 -1.19955,0.1894 -0.69448,1.8309 -0.18941,2.08344 -0.69448,1.01015 -0.34882,2.17973 -1.27035,0.1231 -0.7168,-1.10327 -2.96733,-0.44194 -4.65797,0.32523 -2.57621,0.17316 -0.29811,0.75893 -0.60017,0.95598 0.037,2.62086 c 0,0 0.80357,1.83036 0.98214,2.09821 0.17857,0.26786 0.71429,1.02679 0.71429,1.02679 l 0.35714,3.48214 -0.89286,0.71429 -0.84821,1.42857 -0.89286,1.33928 -0.22321,3.97322 -0.66965,0.53571 -1.25,-0.22321 -1.74107,-1.25 -2.00893,-0.98214 -1.5625,-0.53572 -0.98214,-0.53571 -0.13393,-2.36607 -0.75893,-0.3125 -0.58035,-1.11608 -0.58036,-0.98214 -2.45536,0.17857 -0.49107,0.9375 -0.89286,0.9375 -0.0446,1.42857 -1.33928,1.42858 -1.51786,1.07142 -0.3125,1.38393 c 0,0 -1.11607,0.66965 -1.11607,0.84822 0,0.17857 0.26785,2.99107 0.26785,2.99107 l 0.66965,0.71428 0.35714,3.34822 4.82143,0.26786 0.71428,0.44642 0.89286,1.74108 0.98214,1.20535 0,3.34822 1.65179,0.17857 1.33929,1.20536 1.69642,0.35714 -0.0893,0.53571 -0.71429,0.9375 -1.02678,0.625 -0.17857,2.67857 -0.84822,1.16072 -1.02678,1.07143 -1.29465,1.02678 -2.1875,0.625 -1.91964,0.84822 -0.75893,0.66964 -1.07143,0.84821 -1.07143,0.89286 -0.0893,1.60714 2.05357,0.66965 0.58036,0.75893 1.20535,1.33928 2.27679,1.74107 1.20536,1.11607 -0.0893,2.72322 -0.625,1.07143 -0.9375,1.91964 -1.83036,1.5625 -2.00892,1.91964 -0.98215,2.14286 0.0893,4.24107 0.80357,2.23214 0.84821,2.05358 0.89286,1.96428 3.08036,1.02679 3.70536,0.49107 c 0,0 0.49107,0.49107 0.66964,0.58036 0.17857,0.0893 1.25,1.20535 1.25,1.20535 l 0.98214,0.98215 -0.0446,2.00892 -0.71429,0.49108 -0.80357,1.83035 0.40179,2.90179 1.07143,1.875 1.07142,1.78571 0.22322,1.60715 -0.58036,0.98214 -1.60714,0.17857 -0.98214,1.16071 -0.98215,1.11608 -1.91964,0.75892 -0.66964,1.42858 -1.33929,0.49107 -1.02678,2.14285 -1.02679,1.875 c 0,0 -0.40179,6.42858 -0.40179,6.65179 0,0.22321 -0.98214,1.69643 -0.98214,1.69643 l -0.98214,0.71428 -3.39286,0.35715 -3.4375,1.16071 -4.82143,-0.35714 -0.3125,-0.75893 -0.625,-0.71429 -0.625,-0.75892 -0.66964,-1.47322 -0.75893,-0.0893 -1.38393,-1.07143 -1.47321,-1.74107 -2.00893,-0.58036 -2.67857,-0.84822 -3.34822,0.0447 c 0,0 -0.58035,0.53571 -0.71428,0.84821 -0.13393,0.3125 -2.5,1.07143 -2.5,1.07143 l -1.38393,0.71429 -1.5625,0.98214 c 0,0 -1.07143,1.47321 -1.20536,1.65178 -0.13393,0.17858 -1.60714,1.42858 -1.60714,1.42858 l -1.29464,1.38393 -1.38393,1.47321 -1.51786,0.66964 0,0.89286 0.0893,1.78571 4.28571,0.71429 0.58036,2.76786 1.11607,0.625 c 0,0 0.66964,0.75893 0.84821,0.98214 0.17857,0.22321 4.64498,-0.1751 4.64498,-0.1751 l 1.01015,0.88388 1.32583,1.31004 -0.64713,2.63587 -1.40474,0.22097 -2.2255,0.26832 -0.0947,1.89404 1.81512,0.55242 1.79933,0.74183 0.79708,0.79708 0.95884,-0.017 0.99044,-1.00102 1.07328,0.15784 0.34724,1.16799 0.91545,0.94702 0.0316,5.55584 0.0631,2.0203 2.0203,0.34724 1.67307,0.0947 0.12947,3.07098 0.89285,1.16072 0.35715,0.89285 0.44643,0.44643 0.44642,3.39286 0.625,1.60714 0.44643,4.375 -0.17857,3.92857 -0.89286,1.69643 -0.71428,1.42857 -0.89286,0.98215 -0.98214,0.53571 -0.47223,1.89424 -0.85231,2.02031 -1.89404,0.88388 -0.41037,0.66291 -0.94702,0.66292 -0.72605,-0.31568 -0.69448,-0.72604 -0.0947,0.75761 -0.44194,1.19956 -0.91545,1.89403 -0.75762,1.7362 -2.0203,1.01015 -2.74635,0.91546 -1.60993,0.50507 -3.4724,0.12627 -1.07329,0.66291 -0.63135,1.51523 -0.15783,1.79934 -1.42053,0.47351 -0.82075,2.0203 -1.16799,0.85232 -0.88388,0.56821 0.0947,1.13642 0.94702,0.91545 0.31567,1.8309 0.66291,0.69448 0.47351,0.63135 1.98874,0.2841 0.69448,1.32583 1.07329,0.69448 0.85232,0.85231 0.22097,0.75762 0.91545,0.78918 1.23112,0.34724 1.35739,1.10485 0.56821,0.97859 0.18941,2.80949 0.63134,0.94701 0.66291,1.38896 0.63135,0.85232 0.34724,1.42053 0.82075,0.78918 0.63134,1.29426 1.13643,1.38896 0.78918,1.07328 2.39911,0.0947 1.42053,-0.66292 1.26269,-0.72604 3.12516,-0.22098 2.77792,0.56822 1.10485,0.94701 c 0,0 1.5468,-0.22097 1.67307,-0.22097 0.12627,0 1.67306,-0.85231 1.67306,-0.85231 l 1.5468,-1.04172 3.81964,-0.15784 2.87262,0.1894 0.63134,1.23113 1.48366,0 1.2627,-1.16799 2.36754,0.0316 1.01015,0.85231 1.26269,0.50508 1.29426,1.32582 1.89404,0.72605 0.85231,1.29426 1.6415,0.47351 2.74635,2.17814 0.91545,1.9256 1.42053,2.87262 1.48366,1.60993 0.75762,1.51523 1.60993,1.32583 -0.0316,3.40926 -0.15784,3.78807 0.31568,3.12516 1.95717,0 1.98874,-0.31567 1.20047,0.0937 -0.0136,-3.22991 2.04399,-1.08276 1.10388,-0.93615 1.5625,-1.625 2.25,0 1.25,-1 5.875,-0.125 1,-0.75 1,0 0.5,-2 -1.125,-1.125 -2,-1.625 -1.125,-1.375 0,-1 -0.875,-1.25 -0.5,-1.125 -1.28125,-2.3125 -0.0625,-4.28125 0.90625,-0.90625 0.3125,-3.4375 1,-3.6875 c 0,0 0.625,-0.375 0.75,-0.625 0.125,-0.25 0.625,-1.875 0.625,-1.875 l 1.6875,-2 0.5,-0.4375 0.75,-1.6875 0.5625,-1.4375 0.6875,0 c 0,0 0.375,-0.8125 0.625,-1.125 0.25,-0.3125 1,-1 1,-1 l 0.8125,-1.0625 0.75,-0.625 2.6875,0.0625 1.3125,-0.125 0.875,-0.875 0.3125,-1.25 -0.8125,-0.5625 -0.0625,-1.6875 1.0625,-1.3125 0.75,-0.5 0.0625,-1.5 0.75,-0.875 1.4375,-0.9375 1.25,-1.3125 0.8125,-1 c 0,0 1.5625,-0.375 1.8125,-0.625 0.25,-0.25 1.8125,-1 1.8125,-1 l 1.5,-1.1875 0.5,-0.875 0.9375,-0.875 1.125,-0.25 0.6875,-0.625 0.3125,-1.375 -0.125,-3.5625 -0.75,-1.0625 -0.53125,-2.46875 -0.0937,-6.34375 1.25,-1.25 0.28125,-6.46875 0.75,-1.25 L 322.625,351.5 c 0,0 1.09375,-1.59375 1.03125,-1.75 -0.0625,-0.15625 0.75,-2.875 0.75,-2.875 l 1.0625,-2.40625 1.46875,-1.28125 0.5,-0.5625 0.65625,-1.625 0.9375,-1.96875 1.09375,-2 0.84375,-2.125 2.53125,-2.1875 0.875,-1.03125 0.625,-1.8125 1.65625,-1.84375 0.75,-0.53125 0.625,-2.46875 0.90625,-2.0625 2.125,-2.28125 2.09375,-1.90625 1.65625,-0.59375 1.90625,-2 2.09375,-1 0.8125,-1.5 2.21875,-0.625 2.375,-0.625 0.71875,-0.78125 1.875,-0.53125 1.90625,-0.75 2.375,-0.40625 2.03125,-0.84375 1.8125,-0.78125 1.125,-0.65625 2.21875,-0.625 1.1875,-0.875 1.75,-1.5 3.375,-1.125 3.5,-1.0625 2.78125,-0.5 1.125,-0.5625 0.71875,-1.0625 0.5625,-0.875 1,-0.375 0.53125,-0.625 2.15625,-0.28125 2.34375,-0.90625 5.53125,-0.0625 2.125,-0.3125 2.21875,-1.09375 0.5625,-1.78125 1.03125,-0.53125 1.3125,-0.84375 1.21875,-1.09375 1.59375,-0.5 0.78125,-0.90625 1.53125,-0.5 c 0,0 0.5625,-1.84375 0.46875,-1.96875 -0.0937,-0.125 -0.90625,-1.03125 -0.96875,-1.15625 -0.0625,-0.125 -2.25,-0.375 -2.25,-0.375 l -0.9375,-1.03125 -0.15625,-1.875 -0.21875,-7.5625 0.5625,-3.375 1.46875,-2.4375 1.15625,-1.34375 0.21875,-1.4375 0.875,-0.84375 3.1875,-1.1875 2.15625,-0.5625 0.59375,-0.96875 1,-0.0312 0.625,0.78125 0.1875,2.53125 c 0,0 0.5625,0.125 0.625,0 0.0625,-0.125 0.5625,-0.875 0.5625,-0.875 l 0.3125,-0.90625 -0.75,-0.375 c 0,0 -0.4375,-2.21875 -0.4375,-2.34375 0,-0.125 0.75,-0.875 0.75,-0.875 l 0.6875,-2.4688 1.03125,-2.875 0.9375,-2.21875 1.15625,-1.96875 0.1875,-1.6875 -1.5625,-1.46875 c 0,0 -2.40625,-0.40625 -2.625,-0.53125 -0.21875,-0.125 -1.375,-2.125 -1.375,-2.125 l -0.25,-2.84375 0.3125,-4.03125 1.40625,-1.125 1.03125,-2.375 1.71875,-2.84375 1.34375,-1.0625 0.75,-1.03125 2.375,-0.8125 2.625,-2.03125 1.875,-1.21875 3.0625,-0.8125 2,-1 1.78125,-1.65625 1.21875,-0.25 0.875,-0.9375 c 0,0 1.6875,-1.375 1.6875,-1.5 0,-0.125 0.1875,-3.3125 0.1875,-3.3125 l -0.96875,-0.9375 -0.0625,-1.15625 1.25,-1.1875 0.78125,-0.875 1.59375,-1.71875 1.75,-1.375 0.59375,-0.59375 1.34375,-0.65625 3.21875,-0.59375 1.6875,-0.5625 2.3125,-0.59375 1.53125,-1 2.0625,-0.90625 1.6875,-1 c 0,0 1.4375,-1.90625 1.46875,-2.03125 0.0312,-0.125 1.78125,-0.65625 1.78125,-0.65625 l 0.8125,-0.84375 3.375,-0.375 2.4375,-0.8125 0.5625,-2.1875 0.53125,-0.625 0.40625,-3.5625 1.0625,-0.75 2.1875,-0.46875 4.21875,-0.125 1.03125,-0.96875 3.375,-0.65625 1.96875,-1 1.21875,-0.78125 0.5,-0.875 L 486,186.875 l 1.90625,-0.8125 1.9375,-1.25 2.14789,-0.84597 1.87825,-0.97227 0.88389,-1.01647 1.03856,-2.05568 1.40931,-0.29105 z M 319.88281,390.75 l 0.14844,-2.71875 1.78125,0.0312 0.40625,0.75 0.5625,0.4375 0,0.75 -1.4375,0 -0.40625,0.8125 -0.59375,0.1875 -0.46094,-0.25 z"
       id="Provincia_di_Savona"
       style="fill:#8facc7;fill-opacity:1;fill-rule:evenodd;stroke:#000000;stroke-width:1px;stroke-linecap:butt;stroke-linejoin:round;stroke-opacity:1" />
  </g>
  <g
     transform="matrix(4,0,0,4,-15.85704,-7.5005736)"
     id="layer5"
     style="display:inline">
    <path
       d="M 858.81531,161.23932 857.9375,162.25 c 0,0 -1.0625,0.84375 -1.1875,0.96875 -0.125,0.125 -1.46875,0.65625 -1.46875,0.65625 l -1,0.6875 -0.65625,0.75 c 0,0 0,0.5625 0,0.6875 0,0.125 0.53125,0.5625 0.53125,0.5625 l 0.40625,2.0625 1.25,0.8125 c 0,0 0.75,0.6875 0.9375,0.8125 0.1875,0.125 0.1875,2.0625 0.1875,2.0625 l -0.4375,1.5 -1.28125,0.125 -0.15625,0.5 c 0,0 0.3125,0.375 0.75,0.75 C 856.25,175.5625 857,176.5 857,176.5 l 0.875,0.375 1.5625,0.75 0.75,0.75 1.0625,-0.1875 0.875,-0.8125 0.625,-0.5 0.6875,-0.375 1,0.75 0.125,1.25 0.875,0.75 -0.0625,5.5 1,1.75 1,0.875 0.6875,0.8125 1.375,0.5 0.8125,0.8125 1.5,1.25 1,0.375 1.625,1.0625 0.75,0.9375 0.25,1.625 -0.5,0.5 -0.8125,2.0625 -0.6875,1.4375 -0.5,0.625 -0.3125,1 -1.625,0.5 -1.625,1.1875 -1,1.1875 -0.3125,5.4375 -0.75,0.5 0,1.3125 0.9375,0.8125 2,0.4375 0.9375,1.125 1.25,0.375 0.5,0.75 1.75,1.625 1.5625,1.4375 1.0625,1.9375 0.375,2.625 1.875,2 1.4375,0.5 1.1875,1.3125 1.875,1.5 1,0.125 1.1875,1.1875 1.375,0.75 1.6875,1 1.5,0.5 0.625,1.875 0.9375,1.125 -0.0625,3.25 0.875,1.6875 0.9375,0.8125 c 0,0 0.9375,0.75 1.125,1 0.1875,0.25 1.625,0.4375 1.875,0.6875 0.25,0.25 0.375,1.5 0.375,1.5 l 1.625,0.25 0.8125,3.25 0.25,6.375 -0.4375,2.375 -0.375,0 -0.5625,-1.125 -1.1875,-0.0625 -0.75,-0.875 -1.3125,-0.25 -0.75,-0.8125 -1.3125,-0.25 -3,0.125 -0.75,0.9375 -1.4375,-0.0625 -2.9375,0.5625 -1.1875,0.375 -0.4375,0.625 -0.875,0.5 -0.3125,2.5625 -0.5,0.375 -0.5,1.875 -0.5625,0.125 -0.25,1 -0.8125,0.875 -0.4375,1.1875 -0.875,0.8125 0.0625,1.1875 1.25,1.0625 0.875,0.875 -0.3125,3.3125 -0.4375,0.3125 -0.75,0.75 -0.90625,1.25 -1.21875,1 -1.14063,0.96875 -1.14062,1.15625 -1.14063,1.375 -0.51562,-0.9375 -0.6875,-1.0625 -0.75,-0.875 -1.5625,-0.25 -0.625,-0.75 -0.9375,-0.9375 -0.375,-1.5625 -0.5,-0.4375 -0.0625,-1.6875 -0.1875,-1.3125 -0.6875,-0.6875 -0.25,-0.5625 -0.75,-0.5625 L 864.75,264 l -1.3125,-1.1875 -2.0625,-0.5 -0.5,-0.9375 -0.5625,-0.125 -0.6875,1.3125 -0.1875,0.625 -0.9375,0.5625 -0.1875,0.75 -0.6875,1.1875 -0.5,0.8125 -0.8125,0 -0.9375,-0.75 -1.125,-0.375 -0.4375,-0.5625 -1.5,-0.5625 -0.6875,-0.875 -1.125,0.0625 -0.6875,-0.9375 -2.4375,0.1875 -0.6875,0.875 -1.625,-0.25 -0.5,-0.625 -0.875,-0.8125 -0.875,-1 -1,-2 -1.625,-2.25 -0.5625,-1.625 -0.75,-1.25 -1.0625,-0.875 -1.6875,-0.9375 -1.875,-0.5625 -0.6875,-0.9375 -1.5625,0 -0.875,0.875 -0.625,1.1875 -2,0.25 -0.75,0.75 -1.4375,-0.125 -0.125,-1.5 -0.25,-1.25 -0.3125,-2 -1.1875,-2.125 -0.8125,-0.625 -1.3125,0.125 -1.25,0.5625 -1.8125,0 -0.875,-1.125 0.875,-1.125 2.625,-0.125 0.375,-0.25 0.125,-0.875 0,-2.5 -0.4375,-0.8125 -0.3125,-0.9375 -0.9375,-1.125 -1.09375,-1.0625 -1.4375,-1.09375 -2.0625,-2.09375 -1.21875,-1.5625 -1.65625,-0.59375 -1.40625,-1.5625 -1.9375,-1.78125 -1.5625,-0.5625 -1.5625,-0.75 -1.375,-0.9375 -1.25,-0.4375 -0.5,-1.375 -1.125,-0.0625 -0.5625,-0.8125 -2.3125,-1.25 -1.3125,-0.3125 -1.09375,-0.51562 -0.4375,0.0156 -0.125,0.375 1.1875,0.75 1.65625,0.90625 1.1875,1.09375 0.375,1.03125 -0.8125,0.59375 -0.46875,-1.625 -1.71875,-0.53125 -0.84375,-0.6875 -1.0625,0 -0.3125,-1.6875 -0.34375,-0.1875 -0.6875,-0.0312 -3.75,-0.4375 -0.25,-0.5 -1.5,-0.5 -0.0625,-0.375 1.6875,0 0.4375,-0.6875 -0.5625,-1 -0.6875,-0.5 -1.1875,-0.5625 -1.3125,-0.625 -1.125,-1.0625 -1.5,-0.5625 -1.125,-0.75 -0.6875,-0.4375 -1.5625,-0.5 -0.8125,-0.4375 -1.625,-0.5 -0.875,-0.8125 -1.875,-0.375 -0.6875,-0.5625 -1.6875,-0.5 -1.9375,-0.9375 -0.5,-0.6875 -0.6875,-0.6875 -1.25,-0.375 -1,-0.75 -2.1875,-0.6875 -0.75,-0.5625 -1.625,-0.1875 -1.1875,-0.625 -2.875,-1.4375 -1.25,-0.375 -1,-1.1875 -1.75,-0.625 -0.4375,-1.0625 -0.5625,-0.6875 -2.4375,-0.1875 -0.875,1 -0.4375,1.1875 -0.625,1.4375 -0.0625,3.875 -0.625,0.8125 -1.125,0 -1.375,-1.1875 -1.1875,0.125 -0.8125,1.125 -0.1875,2.5625 0.625,0.875 1,2.1875 -0.5625,3.625 -0.5625,1.8125 -0.1875,2.375 -0.6875,0.5 -1.5625,0.0625 0.1875,1 0.75,0.8125 1.125,1 0.8125,0.75 0.375,1.125 1.3125,1.25 -0.3125,1.125 -1.5,-0.25 -0.75,-0.625 -1.8125,-0.5 -0.75,-0.5 -1.3125,-0.3125 -1.1875,-1 -2.3125,-1.375 -1.8125,-0.625 -2.625,-0.875 -3.625,-0.125 -0.25,-0.625 -0.875,-0.8125 -1.5625,-0.625 -1.1875,-0.75 -1.9375,-0.625 -1.1875,-0.1875 -2.04214,-0.0816 -1.14905,-0.53033 -0.7071,-1.23744 -0.35356,-1.23743 -1.14905,-0.61872 0,-1.67938 0.53033,-0.88388 0.53033,-1.76777 0.97228,-1.14905 0.61871,-0.88388 0.61872,-4.94975 -0.35355,-4.50781 -0.35355,-0.88388 -1.41422,-0.61872 -0.88388,-0.61872 -0.0884,-1.67937 -0.97227,-0.61872 -1.41421,-0.88389 -0.17678,-1.76776 -2.56326,-0.44194 -3.71231,-0.26517 -0.97228,-0.53033 -0.97227,-1.14905 -1.23743,0 -2.12132,-1.32582 -1.32583,-0.44195 -2.74004,-0.61871 -0.61872,-1.14905 -1.06066,-0.44194 -3.44714,0 -2.38649,-0.70711 -2.82843,-1.14905 -1.67937,-0.61872 -1.85616,-0.61872 -2.50341,-1.38182 -3.25,0.25 -1.25,-0.75 -4.625,-0.5 -2,-0.625 -4.625,-0.5 -1.625,-0.5 -4.75,-0.25 -1.25,-0.875 -3.5,-0.5 -2.625,-0.75 -2.1875,-1 -1.8125,-1.09375 -0.8125,-0.875 -2.5,-0.0937 -1.40625,0.75 -3.03125,0.5 -3.5,-0.21875 -0.53125,-0.75 -3.90625,-0.1875 -1.21875,-0.28125 -1.9375,-1.46875 -2.21875,-0.0937 -1.09375,-0.5 -1.1875,0.6875 -0.53125,-0.75 -1.1875,-0.375 0.12215,-0.86126 -0.75131,-0.92808 -0.30935,-2.2981 -0.0884,-4.28683 -0.44194,-0.7513 -0.44195,-0.83969 -1.32582,-0.57453 -0.70711,-0.61872 -0.7513,-0.13258 -1.01647,0.83969 -1.19324,0.0884 -0.83969,0.88388 -1.4584,0.22097 0,3.00521 c 0,0 0.22097,0.79549 0.44194,0.79549 0.22097,0 2.87262,0.30936 3.04939,0.30936 0.17678,0 0.75131,0.70711 0.75131,0.70711 l -0.13259,1.45841 -0.48613,0.44194 -0.13259,1.45841 -1.23743,-0.0884 -0.61872,-0.70711 -2.51907,-0.44194 -1.94454,-0.92808 -4.02167,-0.22097 -1.10486,-0.66291 -3.02729,0.0221 -2.3202,-0.33145 -0.53033,-0.70711 -2.74004,0 -1.81196,-0.26516 -2.69585,-1.01647 -0.79549,-0.70711 -2.96101,-0.13258 -0.7513,-0.70711 -1.98874,-0.39774 -1.72357,-0.70711 -2.56326,-0.26516 -0.7955,-0.61872 -2.16551,-0.26517 -0.61872,-0.48613 -0.7955,-0.22097 -1.41421,-0.53033 -0.39775,-1.01647 0.7955,-0.70711 0.7955,-0.0442 0.39774,1.01647 0.7513,0.0442 1.5468,-0.0884 2.29809,0.26516 1.29408,0.2482 1.1875,0.25 0.875,-0.4375 1.125,-0.4375 1.375,-0.5625 1,-0.375 -0.8125,-0.875 -1.25,-0.5625 -1.625,-0.4375 -1.375,-0.75 -3.0625,0 -3.3125,0 -1.0625,-0.9375 -2.9375,-0.25 -1.1875,0.6875 -0.49448,1.6654 -1.3125,0 -0.90435,-0.44855 -0.78867,-1.09185 -0.9375,-0.4375 -1,-0.75 -2.5625,0.125 -2.125,0.25 -1.875,-0.6875 -1.5625,-0.75 -2.125,0.0625 -0.125,0.5 1.0625,0.9375 2.9375,0 1.3125,0.625 1.9375,0 1.125,1.0625 0,0.375 -0.75,0.4375 -0.8125,1.5625 -2.5,-0.125 -0.625,-1.0625 -2.75,0 -1.1875,-0.4375 -1.8125,-0.8125 -0.875,-1.0625 -1.5,-0.4375 -1.5625,-1 -1.8125,-0.4375 -3.25,0.1875 -3.5,0.0625 -0.875,1 -1.5,0.25 -0.5,0.5 -1.75,0.375 -0.5,0.375 -1,0.5 -0.875,0.75 -1.25,0.5 -1,0.75 -0.875,0 -1,1 -2.125,0 -0.875,0.5 -1.375,0.5 -0.875,0.875 -0.625,1.25 -1.375,0 -1.375,0.5 -0.5,1.125 -1.375,0 -0.625,0.75 -0.625,1.125 -0.625,1.125 -0.875,0.125 0.375,1.875 0.625,0.5 -0.125,0.625 -0.75,0.75 -1.75,2 -2,0.125 -2.75,0.625 -5.875,0.125 -2.29495,1.38203 -3.0936,1.10485 -1.04895,1.185 -1.71875,0.39062 -0.89063,1.84375 -0.42187,1.84375 -0.15625,-0.0982 -0.3125,-1.33928 -1.11607,-0.22322 -1.25,-0.75892 -1.42857,-1.02679 c 0,0 -0.75893,-0.9375 -1.07143,-0.9375 -0.3125,0 -1.78571,-0.89286 -1.96429,-1.07143 -0.17857,-0.17857 -1.91964,-1.25 -1.91964,-1.25 l -1.07143,-0.9375 -2.23214,-1.07143 -1.16071,-1.20535 -0.9375,-1.83036 -1.20536,-1.69643 -1.33929,-2.00893 c 0,0 0.26786,-3.25893 0.26786,-3.57143 0,-0.3125 -1.11607,-3.08035 -1.11607,-3.08035 l -0.0893,-2.5 -0.89285,-1.29465 c 0,0 -0.40179,-2.5 -0.49108,-2.67857 -0.0893,-0.17857 -0.9375,-0.84821 -0.9375,-0.84821 l -0.9375,-0.89286 0.13393,-0.58036 1.29465,0.35715 1.38392,0.98214 1.96429,0.17857 1.02679,-0.40179 2.32142,-0.625 2.23215,0.17858 -0.0446,-2.14286 -1.25,-0.84822 0,-1.38392 2.5,0 0.89286,-0.80358 6.83036,0 1.42857,-1.11607 6.11607,-0.17857 1.96429,-1.38393 1.69643,-0.66964 1.47321,-1.20536 1.5625,-0.44643 1.33929,-1.47321 0.67095,-3.47278 c 0,0 0.44194,-0.3788 0.50508,-0.88388 0.0631,-0.50508 0.31567,-2.20971 0.31567,-2.20971 l -0.94702,-0.56821 -1.57836,-0.50507 0,-4.98763 c 0,0 -0.88389,0.12627 -0.88389,-0.88389 0,-1.01015 -0.12627,-5.99778 -0.12627,-5.99778 l 1.13643,-1.8309 0.25253,-1.38896 -1.19955,-0.75761 -0.12627,-2.14658 -0.63135,-0.56821 0.0631,-2.39911 -1.01015,-0.94702 -0.56822,-1.38896 -0.88388,-1.45209 -6.31345,-0.31567 -4.41942,0.56821 -0.88388,0.63134 -1.57837,0.12627 -0.88388,0.75761 -1.13642,0.0631 -0.50508,-0.88388 -0.82075,-0.37881 -0.25254,-0.75762 -0.69448,0 0,-1.19955 0.94702,-0.31567 0.12627,-0.69448 -1.57836,0.12626 -1.89404,0.37881 -1.13642,0.82075 -0.50508,0.12627 -1.07328,0.88388 -0.94702,1.13642 0,1.07329 1.01015,0 0.25254,1.07329 1.01015,0.75761 -0.1894,0.50508 -0.94702,0.56821 -1.89403,-0.12627 -1.83091,0 -1.13642,-1.13642 -0.94702,0 c 0,0 -1.70463,-0.63135 -1.95717,-0.63135 -0.25253,0 -0.50507,-1.19955 -0.50507,-1.19955 l -1.32583,-1.95717 -0.82075,-1.95717 0.12627,-1.8309 -1.0327,-0.23639 -0.25692,-1.25009 -0.45313,-0.82813 0.125,-4.25 0.0469,-1.624999 1.625,-1.125 1,0.25 1.25,0.5 1.25,-0.125 1.125,-1.5 1.5,-1.375 0.25,-2.875 c 0,0 0.125,-1.25 0.625,-1.5 0.5,-0.25 1,-1.25 2,-1.25 1,0 3.375,-0.25 3.375,-0.25 l 0.875,1.25 0.75,-1.5 0.625,-1.875 1.125,-1 0.75,-1 -0.75,-1 -1.375,-0.5 -0.5,-1.5 -1.75,-1.375 -2.25,-0.75 -1.625,-1.375 0.375,-3.5 1.625,-0.75 0,-2.5 1.75,-1.25 2.5,0 0.625,0.75 1.5,-0.25 0.875,-2.625 1,-1.5 0.41148,-0.583912 -0.79549,-1.104855 0,-2.872621 0.66291,-1.016466 0.97227,-0.618718 0.48614,-0.397748 0.26516,0.618719 0.39775,1.325825 0.66291,1.016466 1.01647,0.839689 1.19324,0.220971 2.47488,0.132582 0.48613,0.707107 1.37002,-0.04419 0.35356,-0.751301 6.67332,-0.04419 0.83968,1.06066 1.01647,0 0.26517,-1.104854 0.61871,-0.83969 2.25391,0.0442 0.92807,0.662912 1.591,0.574524 0.44194,0.883884 0.48613,1.635185 2.12132,0 1.41422,-1.414214 0.35355,-1.767767 0.35355,-1.237436 1.23744,1.06066 0.88388,0.353553 1.59099,1.06066 1.59099,0 1.41422,-1.06066 4.24264,0 3.35876,0.353553 0.17677,0.883884 0.88389,0.53033 0,1.59099 1.06066,1.237437 1.41421,1.06066 0.70711,0.53033 0.53033,1.060661 1.23743,0.707106 0.35356,3.358758 1.06066,1.06066 0.17677,1.237437 0.88389,1.237436 -1.23744,1.237437 0,1.06066 1.06066,0.176777 1.94454,1.06066 1.94455,0 0,4.419418 1.06066,1.59099 0.17677,1.414214 1.2883,0.363356 0.14329,1.363284 -0.9375,0.53125 -0.40625,2.34375 -0.65625,0.53125 -0.40625,1.28125 -0.625,0.3125 0.0937,1.34375 0.8125,0.40625 1.15625,0.09375 0.125,-2 c 0,0 0.9375,-0.75 1,-0.90625 0.0625,-0.15625 0.9375,-1.5 0.9375,-1.5 l 1.125,0.34375 0.59375,1.375 1.03125,0.96875 0.96875,1.34375 0.1875,2.03125 -0.875,0.875 0,1.625 1.125,1.125 -0.25,3.249996 1,0.375 0.5,1.375 0.625,1.25 0,1.5 -0.875,0.375 -0.375,2.5 -1.625,0.5 -0.125,2.5 0.5,0.875 0.375,0.875 4,0.625 3.75,-0.75 0.625,-1.875 1,-2.75 0.625,-1.375 1.125,-1 0.75,0 0.375,-5.75 -1.25,-1.375 -0.375,-4.124996 1,-3.25 0.625,-2.375 1.125,-1.25 1.875,-1.875 1.5,-1.125 2.75,-1 3.625,0.375 0.875,-1.25 1,-1.25 1.375,-0.625 0.125,-1 -1.375,-1 -1,-1.25 -1.625,-1.375 0.125,-4.125 1.125,-1 1,-1.875 3,0 4.125,0 1,0.5 c 0,0 3.625,0 4.125,0 0.5,0 2.75,-0.25 2.75,-0.25 l 0.75,-0.75 0.25,0 0.375,-1.625 1.42187,-0.5 0.65625,0.546875 c 0,0 1.14063,1.249999 1.20313,1.343749 0.0625,0.09375 1.31129,1.697707 1.31129,1.697707 l 1.06066,0.883883 0,1.59099 1.76777,1.944544 1.59099,0.53033 1.41421,0.883884 0.88388,0 0.35356,-1.016467 1.32582,-2.055029 1.78987,-0.08839 3.2207,-0.387077 2.375,-1.75 1.625,-0.5 1,-1.125 1,-2.375 0,-2.625 -1.625,-1 -1.25,-1.75 -1.75,-2.375 0,-3.125 -1,-1.5 c 0,0 0,-4.875 0.125,-5.375 0.125,-0.5 -0.5,-2 -0.5,-2 l -1.375,-2.25 -1,-1.875 0.125,-2.25 1,-0.625 1,-0.25 0,-1.625 -1.25,-0.875 -0.25,-3.375 -1.125,-1.125 -2,-1.5 -1.25,-0.5 -0.875,-0.875 -0.75,-1.625 -1.5,-0.25 -1.625,-1.5 0.125,-3.5 2.5,0 0.75,-1.5 2.75,0 1.875,-0.875 2,-1.25 1.125,-0.75 0.5,-1.125 0.875,-0.75 1,-1.875 0.25,-1.25 0.875,-0.875 1,-1.5 0.25,-2.5 1.25,-2.4999996 0.625,-2.25 1,-1.75 1.75,-1.25 3.625,0 0.75,0.75 4.625,0.25 1.25,-0.75 3.375,-0.375 0.75,0.875 0.625,2.125 1,3 1.75,1.6249996 1.75,0.5 3.75,-0.25 0.625,-0.8749996 0.75,-0.25 0.75,1.7499996 0.75,1 0.56099,0.06571 0.83968,-1.171146 c 0,0 0.7734,-1.370019 0.88389,-1.4363103 0.11048,-0.066291 1.72357,-1.7456699 1.72357,-1.7456699 l 4.50781,-0.3977475 1.43631,1.2374368 1.56889,2.2318059 1.63518,0.751301 0.34368,3.83962 0.75,0.375 0,3.125 1.25,0.125 2.625,0.125 0.5,0.625 0,1 -1.125,0.375 -1,0.625 0.5,1.125 1.625,0 1.625,0.5 0.375,1.375 0.875,3.25 0.5,0.625 0.625,1.25 0.625,1.125 -0.125,6 0,0.875 0.625,0.75 0.375,1.375 0.375,0 0.875,-2.25 0.625,-1.75 6.375,-0.75 1.125,-1.25 3.875,0.375 2.07686,0.958943 0.44194,1.944543 1.45841,1.767767 1.67938,1.37002 2.16551,0.883883 2.78423,0.397748 0.83969,2.784233 -1.14905,2.872621 -1.14904,1.59099 0,3.756505 2.2539,3.049398 1.76776,2.474874 0.53033,1.59099 1.94455,0.883884 4.06586,1.944544 2.65165,0.707106 4.94975,0.707107 4.77297,-0.707107 2.12132,-2.298097 2.12132,-0.353553 0.53033,-1.767767 1.94455,-2.12132 1.41421,-1.060661 2.82843,-1.767766 1.59099,-0.353554 0.88388,-0.707107 4.77297,-0.353553 2.2981,-0.707107 1.94454,-2.474874 -0.17678,-5.126524 -1.41421,-1.237437 -0.35355,-3.535533 2.65165,0 3.35876,-1.060661 3.71231,-1.414213 1.94454,-0.53033 7.07107,0 1.41421,1.414213 2.12132,1.767767 1.41421,0.883884 0,2.12132 -1.59099,0.353553 -1.41421,1.237437 -0.35355,1.414214 -1.76777,0.707107 -0.35355,2.12132 1.59099,0.353553 4.59619,0.176777 4.24264,1.06066 1.41422,0.707107 4.24264,0 1.06066,-1.06066 0.53033,-2.474874 0.7071,-3.535534 1.06066,-1.59099 0.88389,0.353553 1.76776,0.53033 2.47488,0.530331 2.12132,1.414213 0,1.944544 1.06066,2.12132 1.94454,0.883884 1.76777,1.767767 1.23744,1.06066 2.29809,1.59099 2.12132,2.474874 2.12132,2.12132 1.63519,2.12132 0.83969,0.795495 1.10485,-0.839689 1.45841,-1.458408 1.01647,-1.149049 0.7071,-0.618718 2.60746,-0.353553 1.28163,-1.149049 2.2981,0.795495 2.07712,1.546796 2.2981,2.916816 1.76777,0.397747 0.97227,-4.286835 1.67938,-4.596194 1.58824,0.444194 0.5,1.875 2.625,0.375 1.25,-2.25 1.125,-6.25 1.5,-0.125 1.25,1.5 2,1.375 1.5,0.625 0.75,1.625 0.375,3.375 -1.875,0.875 0,3.5 1.375,2.125 1.625,0.75 1.875,0.375 2,1.375 2.125,1.375 0.875,1.625 2,0.5 4.375,0.875 4.75,-1.75 2.125,0 1.625,1.5 1.625,0.625 2.375,1 2.125,1.875 1.625,1 -0.5,0.625 -0.5,1.375 0,2 -1.25,0.5 0.25,3.25 1.25,0.625 2.125,1.125 1.25,0.75 0.375,2.375 1,0.625 0.125,1.5 0.625,0.5 0.5,2.625 -0.375,3.75 -1.375,0.875 0.375,4.125 -1.25,0.999997 0,1.125 -0.75,1.75 -1,0.875 -0.25,4.375 0.5,4 0.25,3 1,0.375 0,1.75 -1.375,-0.5 -1.375,0.875 -1.625,1.375 -3.375,0.125 -1.375,-1.25 -1.625,-1.75 -1.625,0.375 -0.25,1.5 0,0.875 0.0625,5.0625 -1.25,4.4375 -1.8125,3.5 -0.625,1.125 -0.4375,4.875 -1.125,3.75 -4.125,1.3125 -1.0625,2.125 -0.8125,2 -0.9375,1.125 -0.625,1 -0.125,2.625 0.25,3.1875 1,1.3125 0.6875,0.625 c 0,0 1.125,-0.8125 1.375,-0.9375 0.25,-0.125 2.3125,-0.6875 2.5625,-0.8125 0.25,-0.125 1.875,-1.25 1.875,-1.25 l 2.5625,-1.5625 0.4375,-0.6875 3.1875,-0.125 0.9375,0 0.5625,1.125 0,1.375 -1.125,0.5 -0.25,2.9375 0.25,0.9375 0.3125,0.5625 1.375,0.75 1.31531,0.73932 z m -287.12781,-5.42682 -1,-0.8125 -0.5625,0.0625 -1,1.25 -0.125,0.875 -0.8125,0.0625 -0.75,1.125 -0.9375,0.875 -3.125,0 -1.9375,0.0625 -1.125,-1.125 -2.625,0 -1.125,-0.9375 -1.375,0 -0.3125,0.4375 1.1875,0.375 0.9375,0.75 1.875,0.3125 1.3125,0.125 0.75,0.5625 1.4375,0.0625 1.9375,0.125 0.54799,0.34218 2.03282,-0.0808 1.04419,-0.88637 0.6875,-1.4375 1.0625,0.0625 0.375,-1.6875 1.625,-0.5 z m 3.36709,3.09594 1.63518,0.0442 1.63519,0.88388 2.07712,0.26517 1.94455,0.7513 1.94454,0.57452 2.51907,0.70711 2.07713,0.57452 1.5026,0.39775 3.22617,0.70711 1.85616,0.83969 2.20971,0.70711 1.32582,0.35355 -0.26516,0.30936 -1.72358,0 -2.82842,-0.83969 -1.98874,-0.7955 -2.78423,-0.88388 -1.90035,-0.35355 c 0,0 -2.12132,-0.48614 -2.2981,-0.57453 -0.17678,-0.0884 -1.76777,-0.97227 -1.76777,-0.97227 l -3.0494,-0.48614 -1.90035,-0.92807 -3.22617,0 -0.22097,-1.28163 z m 29.36703,7.5351 2.87262,0.37565 3.0494,0.68501 3.7565,0.64082 2.60746,1.08276 -0.0663,0.81759 c 0,0 -0.68501,0 -0.99437,-0.22097 -0.30936,-0.22097 -2.69585,-0.99437 -2.69585,-0.99437 l -2.60745,-0.70711 -2.65165,-0.7734 -3.20408,-0.46404 -0.0663,-0.44194 z"
       id="Provincia_di_Genova"
       style="fill:#b3cb84;fill-opacity:1;fill-rule:evenodd;stroke:#000000;stroke-width:1px;stroke-linecap:butt;stroke-linejoin:round;stroke-opacity:1" />
  </g>
  <g
     transform="matrix(4,0,0,4,-15.85704,-7.5005736)"
     id="layer6"
     style="display:inline">
    <path
       d="m 858.80978,161.20617 0.89948,-2.03257 0.66291,-2.16551 0.53033,-1.90035 0.66292,-0.66292 1.14905,-0.17677 0.53033,-0.7955 1.59099,-0.17677 0.57452,-0.88389 2.07713,-0.0442 1.01646,-0.97227 5.08233,0 0.88389,-0.7513 4.86135,-0.13259 1.23744,-1.10485 2.38649,-0.0884 0.88388,1.37002 0.61872,0.88388 2.96101,-0.17677 0.26516,-0.92808 0.88389,-0.92808 1.14905,-0.0884 -0.0442,-1.06066 0.7955,-0.92807 0.22097,-2.2981 1.19324,-0.92808 0.57452,-0.83969 2.2981,0.26517 1.01647,0.83969 1.98874,0.13258 0.57452,0.7071 2.78423,0.44195 0.61872,1.94454 1.06066,1.19324 0.61872,1.59099 0.61872,0 0.7513,-1.28163 0.83969,-0.79549 1.28163,-0.0442 0.57452,-1.06066 0.97228,-0.79549 0.30935,-1.14905 0.75131,0 0.17677,-1.10486 1.5468,0 1.01646,0.66292 0.88389,0.61872 0.48613,3.04939 0.35356,0.48614 3.02029,2.77767 2.25,1.25 0.875,0.25 2.75,2.25 1.5,0.25 1.875,2.125 1.5,0.875 6.25,0.25 0.25,1.625 1.5,2.125 1.75,2 0.75,2.125 -0.25,4.25 1,0.625 0.125,5 1.625,1.125 0.1875,4.0625 1,2.875 0.6875,2.1875 2.1875,0.25 0.6875,-0.875 2.9375,-0.25 6.125,0.0625 3.25,0.6875 c 0,0 0.8125,1 1.1875,1.1875 0.375,0.1875 0.75,1.6875 1.1875,2 0.4375,0.3125 1.0625,1.75 1.0625,1.75 l 0,2.875 1,2.6875 0.875,2.875 c 0,0 1.8125,4.625 2.125,4.875 0.3125,0.25 0.5625,2.625 0.5625,2.625 l 4.25,0.5 1.125,0.75 4.625,2.8125 2.375,2.6875 2,2.25 1.0625,2.1875 0.0625,3.5 0.625,1.0625 2,1.6875 3.625,0.25 1.3125,1.625 1.5625,0.375 c 0,0 1.5,1.5 1.75,1.5 0.25,0 0.1875,1.25 0.1875,1.25 l 2.4375,1.5 1.5625,0.625 2.25,1.75 0.25,1.25 2.0625,0 0.4375,-1.3125 1.1875,-0.3125 0.375,-0.625 0.875,0 0.6875,1.3125 1.625,1.8125 1.6875,0.125 0.625,0.9375 3.8125,0 0.5625,3.3125 1.5,0.4375 0.625,0.875 4,0.5625 0.5,0.75 0.8125,0.875 1.0625,4.9375 0.375,3.0625 0.5625,0.625 1.375,0.75 -0.062,3.9375 -0.8125,0.375 -0.625,4.75 -0.6875,0.625 0.9062,2 1.0313,0.875 0.4687,0.9375 0.9063,0.875 2.9062,0.1875 c 0,0 1.1875,1 1.3125,1.0625 0.125,0.0625 0.8125,0.875 0.9375,0.9375 0.125,0.0625 0.094,0.65625 0.094,0.65625 l -1,0.375 -1.0938,1.96875 -1.125,2.8125 -0.1562,3.46875 -0.75,0.5625 -1.0313,2.15625 -0.9687,1.6875 -0.4375,3.375 -0.7813,0.84375 -0.1875,1.03125 0.3125,0.9375 c 0,0 0.9063,2.875 1.0313,3.0625 0.125,0.1875 0.3437,1.75 0.3437,1.75 l 0.9063,1.875 0.625,-0.0312 0.5625,-0.75 0.4375,-0.71875 0.4375,-1.34375 1.0312,-2.15625 0.8125,-2.75 0.625,-1.8125 1,-0.9375 2.0313,-1.5625 1,-1.28125 1.2812,0 1.5313,-1.4375 c 0,0 0.094,-1.3125 0.094,-1.4375 0,-0.125 0.9375,-1 0.9375,-1 l 0.8438,0 0.1875,-0.90625 2.75,-0.5625 2.2812,0.46875 0.062,2.21875 0.8438,1.46875 0.5,0.59375 1.6641,2.10938 1.0078,0.60156 0.5156,-1.21094 4.6484,0.14063 0.4197,0.6502 1.3998,1.08601 0.079,0.62507 -2.2322,0.45221 -2.033,2.82843 -0.7955,1.85615 -2.2981,0.97228 -0.7071,2.12132 -2.4749,3.18198 -1.6793,0.17677 -2.2981,1.85616 -2.1213,2.47487 -0.7955,0.61872 0.1767,1.14905 0.7071,1.06066 0.7955,1.23744 1.1491,-0.0884 0.2651,-1.06066 0.5304,-0.0884 1.3258,-0.70711 0.8839,-0.44194 1.4142,-1.14905 1.5026,0 0.9723,-0.79549 c 0,0 1.591,0 2.2981,0 0.7071,0 1.149,1.14905 1.149,1.14905 l 1.3258,0.88388 1.8562,0.61872 1.149,-1.41421 1.5027,-0.53033 5.1265,0 1.149,1.41421 0.9723,0.97227 1.591,-0.26516 1.8561,-2.03294 1.1491,-1.23743 1.591,0.17677 0.8839,1.67938 1.9445,0.70711 1.0607,2.47487 1.0606,1.23744 -1.4142,1.23744 0.5303,4.59619 0.8839,1.41421 -0.1767,1.76777 -1.4143,1.41421 0.7071,2.78424 0.7072,1.23743 0.2209,1.59099 1.1933,2.3423 0.4861,0.7513 0.2652,1.81196 0.7955,0.35355 1.8119,1.63519 2.3865,0.39774 0.3536,6.98268 -0.2652,2.16552 -1.3258,0.7513 -0.8839,0.79549 -2.2539,0.57453 -0.6187,0.66291 0.2209,1.41421 1.1491,1.01647 1.6794,0.70711 0.4419,0.7513 c 0,0 0.5303,0.97227 0.7071,1.10485 0.1768,0.13258 0.7071,0.13258 0.7071,0.13258 l 0.088,-2.34229 1.1049,-0.88388 0.8397,-1.14905 0.1767,-1.67938 0.7071,-0.48613 -0.1325,-2.87263 1.6793,-1.41421 1.3259,-0.79549 0.3093,-1.14905 0.5303,-1.45841 1.5468,-0.7955 0.8839,-0.48613 2.033,-0.61872 5.9662,0 0.9722,0.70711 1.9888,0.22097 0.3977,0.61872 2.5633,0.44194 0.6629,2.34229 2.3423,0.70711 1.0165,0.57452 2.0329,2.34229 -0.088,1.14905 2.0329,1.67938 0.9723,0.97227 0.5303,2.2981 0.9723,0.53033 -0.1326,0.83969 -0.8838,0.35356 -0.2652,1.14904 -0.5304,1.76777 -1.2374,2.47487 -2.4749,1.94454 -1.7677,1.41422 -0.8839,2.65165 -0.8839,0.7071 -2.2981,0.53033 -1.0607,1.41422 -3.3587,3.35876 c 0,0 -3.0936,3.13778 -3.2704,3.13778 -0.1768,0 -0.9723,2.38649 -0.9723,2.38649 l -0.8396,1.72357 -1.1491,2.20971 -0.7513,1.28163 -3.3587,-1.76777 -2.3865,-0.97227 -0.2652,-0.97227 -0.8397,-0.35355 -0.4861,0.92807 -4.0659,-0.17677 -1.0606,2.29809 -1.9446,1.76777 -1.4142,3.0052 -0.7071,1.23744 -0.5303,1.41421 -2.1214,-0.17677 -1.2374,-1.06066 -3.182,0 -1.4142,-1.06066 -2.4749,-3.18198 -3.5355,-3.00521 -2.4749,-2.82842 -4.4194,-1.41422 -1.7678,-1.06066 -0.1767,-3.0052 -1.7678,-0.53033 -1.0607,-0.88389 -2.1213,-1.23743 -1.591,-1.41422 -0.7071,-5.3033 -1.591,-0.53033 -1.0606,-1.59099 -3.8891,0.88389 -1.7678,0.35355 -4.9497,-0.35355 -0.7071,-3.18198 -1.7678,-0.35356 -2.0771,-1.23743 -0.7071,-0.66292 -1.1491,-0.17677 -0.2652,-1.94455 -0.7954,-0.7513 -0.8839,-2.20971 -0.8839,-0.79549 -0.9281,-2.43068 -0.4861,-1.5468 -0.6187,-1.45841 -1.9004,0 -0.4419,1.37002 -0.3978,1.90035 -1.4142,0 -0.6187,-2.60745 0.221,-1.14905 -2.9169,0 -0.6629,0.97227 -1.2816,1.5026 -1.8562,2.03293 -0.7071,0.97228 0.7955,0.61871 0.3536,1.67938 -1.1491,-0.0884 -0.7955,0.61871 -0.2651,1.06066 -1.3259,0 -0.7071,-0.44194 -0.7955,-0.97227 -0.088,-0.97227 0.2651,-1.85616 -0.088,-1.32582 -2.1213,0.17677 -0.6187,1.06066 0.088,1.23744 1.149,2.12132 1.1491,0.53033 1.0606,1.41422 0.7955,0.97227 1.0607,2.03293 0.1768,1.41421 1.6794,1.76777 0.5303,3.09359 0.9723,1.23744 2.298,1.85615 c 0,0 0.5304,1.41422 0.7955,1.76777 0.2652,0.35355 1.2375,0.97227 1.2375,0.97227 l 0.8839,1.94455 0.8838,0.7071 -0.088,2.2981 -1.0607,0.61872 -0.3536,1.41421 -0.7071,1.32583 -0.7071,0.88388 -0.9722,1.14905 -0.6188,0.35355 -0.5303,-0.61872 -0.4861,-0.61871 -2.5191,-1.98874 -1.5468,-1.94455 -1.9887,-0.7071 -2.2097,-0.97227 -1.4142,-0.97228 -0.221,-0.48613 -0.9723,-0.48614 -0.61871,1.37002 -1.5026,-0.35355 -1.90035,-0.7955 -1.01646,-0.97227 -0.39775,-1.59099 -1.45841,-0.48613 -0.92808,-1.81197 -1.76777,-1.06066 -1.94454,-0.17677 -1.23744,-0.70711 -2.12132,-0.70711 -0.7071,-1.76776 -0.53033,-1.94455 -2.65165,0 -1.23744,-0.53033 -0.53033,-1.94454 -1.59099,-0.53033 -3.18198,-0.70711 -2.2981,-1.59099 -2.2981,-1.76776 0,-1.06066 -1.76776,-1.23744 -1.06066,-2.82843 -1.23744,-1.59099 -0.53033,-2.82843 -1.23744,-1.76776 -0.53033,-1.41422 -2.29809,-0.35355 -2.12132,-0.88388 -1.76777,-0.53033 -1.94454,-0.70711 -1.76777,-1.59099 -1.23744,-0.70711 -2.12132,-2.29809 -2.12132,-0.35356 L 948,325.25 947.5,323 l -3.25,-1.78125 -2.3125,-1.3125 -3.46875,-0.5 -0.78125,-0.96875 -4.34375,-0.0937 -2.96875,0.6875 c 0,0 -0.9375,2.625 -1.0625,2.9375 -0.125,0.3125 -0.875,1.84375 -0.875,1.84375 l -0.8125,2.09375 -0.625,-0.0312 -0.15979,-1.19422 -1.06066,-0.35355 -1.06066,-1.59099 -1.41421,-1.06066 -1.76777,-0.88389 -1.06066,-0.88388 0,-1.59099 -0.88388,-0.70711 -1.06066,-1.06066 0,-1.23743 -1.41422,-0.70711 -0.17677,-1.41421 -1.41422,-1.23744 -0.53033,-3.18198 0.70711,-2.82843 1.06066,-0.88388 -0.70711,-0.88388 -1.76776,-0.35356 -0.35356,-1.06066 -6.7838,-0.35355 -2.58536,-2.71794 -1.10486,-0.86179 -0.15468,-1.43631 -0.39774,-0.81759 -1.87826,0.19887 -0.78081,0.85284 -1.25,-0.875 -1.25,-0.375 0,-3 1.125,-0.625 -0.375,-1.75 -0.25,-1.125 -0.5,-1.25 -1.25,-0.125 -0.25,1.125 -1.25,0 -0.375,-1.125 -2.125,-1.5 -0.25,-1.75 -0.625,-0.625 -1.75,-0.75 -3.25,-0.75 -3.82428,-1.22418 -1.72357,-0.44194 c 0,0 -1.01647,-1.19324 -1.12696,-1.30373 -0.11048,-0.11048 -1.92244,-0.7734 -2.01083,-0.81759 -0.0884,-0.0442 -0.88388,-1.25953 -0.88388,-1.25953 0,0 -1.32583,-0.59663 -1.41422,-0.64082 -0.0884,-0.0442 -0.7292,-0.35355 -0.7292,-0.35355 l -1.20622,-0.5772 1.13791,-1.44396 1.14062,-1.15625 1.14063,-0.96875 1.21875,-1 0.90625,-1.25 0.75,-0.75 0.4375,-0.3125 0.3125,-3.3125 -0.875,-0.875 -1.25,-1.0625 -0.0625,-1.1875 0.875,-0.8125 0.4375,-1.1875 0.8125,-0.875 0.25,-1 0.5625,-0.125 0.5,-1.875 0.5,-0.375 0.3125,-2.5625 0.875,-0.5 0.4375,-0.625 1.1875,-0.375 2.9375,-0.5625 1.4375,0.0625 0.75,-0.9375 3,-0.125 1.3125,0.25 0.75,0.8125 1.3125,0.25 0.75,0.875 1.1875,0.0625 0.5625,1.125 0.375,0 0.4375,-2.375 -0.25,-6.375 -0.8125,-3.25 -1.625,-0.25 c 0,0 -0.125,-1.25 -0.375,-1.5 -0.25,-0.25 -1.6875,-0.4375 -1.875,-0.6875 -0.1875,-0.25 -1.125,-1 -1.125,-1 l -0.9375,-0.8125 -0.875,-1.6875 0.0625,-3.25 -0.9375,-1.125 -0.625,-1.875 -1.5,-0.5 -1.6875,-1 -1.375,-0.75 -1.1875,-1.1875 -1,-0.125 -1.875,-1.5 -1.1875,-1.3125 -1.4375,-0.5 -1.875,-2 -0.375,-2.625 -1.0625,-1.9375 -1.5625,-1.4375 -1.75,-1.625 -0.5,-0.75 -1.25,-0.375 -0.9375,-1.125 -2,-0.4375 -0.9375,-0.8125 0,-1.3125 0.75,-0.5 0.3125,-5.4375 1,-1.1875 1.625,-1.1875 1.625,-0.5 0.3125,-1 0.5,-0.625 0.6875,-1.4375 0.8125,-2.0625 0.5,-0.5 -0.25,-1.625 -0.75,-0.9375 -1.625,-1.0625 -1,-0.375 -1.5,-1.25 -0.8125,-0.8125 -1.375,-0.5 -0.6875,-0.8125 -1,-0.875 -1,-1.75 0.0625,-5.5 -0.875,-0.75 -0.125,-1.25 -1,-0.75 -0.6875,0.375 -0.625,0.5 -0.875,0.8125 -1.0625,0.1875 -0.75,-0.75 -1.5625,-0.75 L 857,176.5 c 0,0 -0.75,-0.9375 -1.1875,-1.3125 -0.4375,-0.375 -0.75,-0.75 -0.75,-0.75 l 0.15625,-0.5 1.28125,-0.125 0.4375,-1.5 c 0,0 0,-1.9375 -0.1875,-2.0625 -0.1875,-0.125 -0.9375,-0.8125 -0.9375,-0.8125 l -1.25,-0.8125 -0.40625,-2.0625 c 0,0 -0.53125,-0.4375 -0.53125,-0.5625 0,-0.125 0,-0.6875 0,-0.6875 l 0.65625,-0.75 1,-0.6875 c 0,0 1.34375,-0.53125 1.46875,-0.65625 0.125,-0.125 1.1875,-0.96875 1.1875,-0.96875 l 0.87228,-1.04383 z m 152.79482,214.47469 1.6794,-0.70711 2.5633,-0.26516 1.7677,-0.88389 2.3865,-0.26516 2.2097,-0.44194 0,1.06066 -1.149,0.97227 -0.1768,2.03293 -1.2374,1.14905 0.1768,2.38648 -0.2652,1.14905 -0.9723,1.06066 0,1.67938 -1.2374,0 c 0,0 -0.3536,-0.70711 -0.6187,-1.06066 -0.2652,-0.35355 -0.7071,-1.59099 -0.7071,-1.59099 l -1.3259,-1.06066 c 0,0 -0.1767,-1.59099 -0.6187,-1.76777 -0.4419,-0.17677 -1.4142,-0.97227 -1.4142,-0.97227 l -0.9723,-1.32582 -0.088,-1.14905 z m 6.364,10.42982 1.8562,-0.17677 0.3535,1.06066 1.6794,0 0.3535,1.85615 -0.8838,0.0884 -0.5304,1.85616 -0.6187,0.0884 -0.3535,-1.59099 -0.5304,-0.44194 -0.4419,-0.88388 -0.8839,-0.44194 0,-1.41422 z"
       id="Provincia_di_La_Spezia"
       style="fill:#e19c55;fill-opacity:1;fill-rule:evenodd;stroke:#000000;stroke-width:1px;stroke-linecap:butt;stroke-linejoin:round;stroke-opacity:1" />
  </g>
  <g
     transform="matrix(0.5818085,0,0,0.55199807,0.96772437,0.91517265)"
     id="g4882">
    <g
       transform="translate(649.82037,586.2757)"
       id="layer1">
      <path
         d="m -77.914391,-517.84643 c -0.3647,0.25575 -0.1568,0.65295 0,0 z"
         id="path2212"
         style="fill:#485134;fill-opacity:1;fill-rule:evenodd;stroke:none" />
      <path
         d="m -173.39889,-451.23713 c 0,0.063 0,0.063 0,0 z"
         id="path2208"
         style="fill:#485134;fill-opacity:1;fill-rule:evenodd;stroke:none" />
      <path
         d="m -172.22689,-445.04963 c -5.8112,9.9924 4.975,10.57035 0,0 z"
         id="path2206"
         style="fill:#485134;fill-opacity:1;fill-rule:evenodd;stroke:none" />
      <path
         d="m -158.68009,-437.54963 c -31.5642,8.8362 6.4524,15.71955 0,0 z"
         id="path21997"
         style="fill:#485134;fill-opacity:1;fill-rule:evenodd;stroke:none" />
      <path
         d="m -121.48569,237.86557 c -10.9683,17.5758 -16.477,7.7967 -30.9744,10.40175 -41.4385,15.75585 40.0527,15.657 19.6667,12.3744 13.8513,4.02765 11.1769,5.22645 15.0061,-15.37935 1.2551,-2.80065 0.2225,-7.39815 -3.6984,-7.3968 z"
         id="path1888"
         style="fill:none;stroke:#000000;stroke-width:4.5;stroke-linecap:butt;stroke-linejoin:miter;stroke-miterlimit:2;stroke-opacity:1;stroke-dasharray:none" />
      <path
         d="m -166.09809,282.70912 c -14.2083,11.66415 8.0624,16.0758 0,0 z"
         id="path1890"
         style="fill:none;stroke:#000000;stroke-width:4.5;stroke-linecap:butt;stroke-linejoin:miter;stroke-miterlimit:2;stroke-opacity:1;stroke-dasharray:none" />
      <path
         d="m -57.687491,325.93461 c -12.8298,9.72795 20.3254,24.41025 0,0 z"
         id="path1896"
         style="fill:none;stroke:#000000;stroke-width:4.5;stroke-linecap:butt;stroke-linejoin:miter;stroke-miterlimit:2;stroke-opacity:1;stroke-dasharray:none" />
      <path
         d="m -134.43019,331.25121 c -16.9922,8.5173 12.0882,12.24405 0,0 z"
         id="path1898"
         style="fill:none;stroke:#000000;stroke-width:4.5;stroke-linecap:butt;stroke-linejoin:miter;stroke-miterlimit:2;stroke-opacity:1;stroke-dasharray:none" />
      <path
         d="m 226.63011,588.06173 c -14.9526,14.3478 4.8539,13.224 0.9246,-0.2311"
         id="path1902"
         style="fill:none;stroke:#000000;stroke-width:4.5;stroke-linecap:butt;stroke-linejoin:miter;stroke-miterlimit:2;stroke-opacity:1;stroke-dasharray:none" />
      <path
         d="m 261.53421,-301.41353 c -11.6143,-2.7798 -7.8439,6.81555 0,0 z"
         id="path1957"
         style="fill:none;stroke:#000000;stroke-width:4.5;stroke-linecap:butt;stroke-linejoin:miter;stroke-miterlimit:2;stroke-opacity:1;stroke-dasharray:none" />
      <path
         d="m 271.93601,-299.79533 c -6.6195,5.6331 9.2353,3.93315 0,0 z"
         id="path1959"
         style="fill:none;stroke:#000000;stroke-width:4.5;stroke-linecap:butt;stroke-linejoin:miter;stroke-miterlimit:2;stroke-opacity:1;stroke-dasharray:none" />
      <path
         d="m 356.07561,621.80993 c -37.10501,-1.1343 19.7661,22.8404 0,0 z m 10.6329,-4.1607 c -13.1725,13.227 10.97,-0.3661 0,0 z m 28.4319,38.1402 c -19.0398,7.5294 21.9345,-0.1759 0,0 z M -521.14849,3.0144704 c 20.4451,-16.3071004 41.6113,-4.43415 26.8137,22.1906996 -24.4283,11.313 -31.3196,54.22665 4.4881,40.00125 23.6922,-5.40525 51.4956,-12.94725 64.6265,-32.14215 6.8515,-11.4189 6.2934,-36.0113996 26.8137,-38.6023496 17.7153,-9.2521504 5.7166,-31.2925504 27.9694,-33.5172004 14.5802,-18.1605 39.5027,-16.13295 54.3209,-7.85925 22.8981,-3.28365 27.6082,27.22515 39.0648,9.4773 18.9645,9.3978 22.951,18.5274 41.1451,27.9694504 11.6073,11.59605 21.5624,14.76705 38.1402,26.3513996 -7.4545,-22.3951496 18.2279,8.49675 32.3615,6.7035 24.9961,19.44795 26.9517,51.9174 26.8137,77.6673 -0.4331,14.85855 12.7188,28.1643 21.7282,42.53205 11.7176,20.44695 20.665099,51.02355 4.6232,73.96875 2.3881,20.3214 31.376399,-10.80405 40.913999,16.4118 -15.0678,25.0851 15.1597,18.261 27.0448,32.36145 4.1453,11.83095 16.0916,12.8082 17.1053,25.8891 m -0.2312,-0.69345 c 19.4807,5.88465 -10.3878,29.85494 -1.8492,28.89404 6.6348,23.50905 24.1367,-12.34875 42.9944,5.0853 27.2662,7.6419 40.9693,30.57825 51.0847,54.32085 m -0.4623,-0.4623 c 7.7114,16.8147 30.9573,13.02915 43.456701,30.51225 17.616,11.62237 9.1356,39.29737 33.9795,42.30097 15.3921,11.8765 27.7144,34.7311 38.6025,45.3058 13.7641,4.9379 32.0122,2.2298 45.0747,18.0299 8.7705,28.8199 18.6012,17.5692 39.5271,10.8642 19.8309,-7.1775 34.5399,21.1318 43.9189,11.0953 9.54409,-19.7338 39.83101,11.7941 45.306,28.6629 -0.927,10.9671 10.8965,15.89 12.7133,26.1203 m 0,-0.2312 c 6.7962,34.1907 6.8266,10.3922 19.291,22.6368 16.6512,-18.4258 32.9516,4.4109 44.0448,15.5034 -16.4269,9.6215 -32.7057,30.861 -2.3115,16.1807 11.3628,-6.1658 5.1648,2.7172 27.9695,-4.1607 m 0.2311,0 c 13.2518,-16.3964 32.6894,10.3233 36.7533,27.276 17.5257,17.7154 -6.6382,32.0727 -3.6984,45.0747 13.767,6.7233 27.8087,11.8647 42.5321,20.8038 7.8675,15.933 7.9935,20.6094 29.5875,18.261 13.1157,-25.5398 36.8518,-4.1024 41.3763,13.1757 9.5043,17.4888 2.9206,40.6206 15.4872,59.4063 11.5072,18.5932 27.6277,38.4769 25.6579,63.7981 -3.7909,25.4598 14.9586,43.3337 23.5776,62.6423 1.3169,28.2712 -21.5487,22.6956 -37.6779,29.5876 -36.0826,6.8487 13.3551,28.06677 -10.8642,47.38617 -0.6679,2.6721 -1.9479,5.1659 -2.5426,7.8593 m -0.4623,-0.4623 c 1.7805,25.3497 -41.5335,18.0454 -27.5072,44.8435 -7.6858,13.6839 9.3243,46.8464 30.0498,33.9795 26.0172,10.0769 41.5506,-11.6167 42.0698,-36.0598 12.0867,-24.2322 37.4097,-31.0434 54.552,-50.6225 3.0951,-27.2037 -14.6207,-62.87737 18.4923,-75.81807 17.6812,-15.799 39.9156,-11.4715 53.1651,-6.7033 26.0953,-17.5971 -2.8938,-24.7956 3.6984,-45.9993 -6.6968,-15.1347 9.8226,-39.947 -8.3216,-48.0798 -15.5547,-9.3291 -30.9678,-28.2278 -47.3862,-30.7434 -22.8709,4.0284 -33.6793,-18.1335 -29.8186,-35.5974 21.0241,-16.3679 9.1461,-36.0215 21.4971,-54.552 16.5865,-20.7332 26.1447,-61.6745 59.4063,-69.1148 27.0658,4.6503 7.7118,23.3867 32.8236,29.3565 21.6901,20.256 56.5638,1.949 76.2804,19.1856 2.373,16.3416 20.4357,30.0494 11.5576,45.537 10.1087,19.5828 33.4508,27.7488 50.8536,33.5172 4.3334,-19.7913 8.4221,-39.685 19.8792,-54.3208 -4.0519,-26.2682 -27.5302,-56.0751 -53.1651,-70.9638 -13.3917,-9.9135 -11.9334,-29.5139 -27.0448,-30.9746 -20.3439,-4.1554 -35.9241,-20.9829 -57.7883,-25.1956 -27.3819,-28.8969 -61.153,-49.8716 -98.9334,-61.0242 -38.1003,-16.3185 -73.2205,-29.9066 -108.8728,-53.3963 -16.7295,-14.9386 -8.4407,-36.4807 11.7888,-42.3009 16.9692,-6.5662 25.4425,-25.8994 16.4118,-36.5221 -19.7487,-24.43177 -50.7461,4.7683 -75.1245,-6.47227 -24.6962,7.43957 -53.5199,4.19436 -76.2804,-5.08545 -10.1664,-17.6496 -48.0701,-12.12855 -45.0747,-38.37135 -29.1512,-6.58035 -40.0382,-36.5589 -62.8736,-51.08475 -50.21563,-39.71819 -46.6231,-110.52869 -74.20001,-163.19369 -10.322,-20.14935 -7.5215,-46.69005 -29.81869,-55.9389 -16.3254,7.0824 -38.3563,-20.09055 -53.1651,-32.13015 -17.5822,-18.6774 -39.0652,-28.0569 -61.2553,-39.29595 -16.6445,-19.7771996 -39.588,-35.77665 -41.8386,-64.26045 -4.7417,-12.28725 -8.6226,-36.2856 -9.2462,-51.3159 -4.9261,-11.1138 -4.4235,-44.25165 7.1657,-39.5271 3.5368,-6.1047 4.4331,13.182 13.8691,4.1607 -5.6622,-29.89995 2.3349,7.01055 9.4773,-12.4821 7.1162,-12.0966 0.3417,-29.11845 -13.1757,-28.20075 0.1935,5.42175 -9.9042,-14.8476 -8.5527,-27.50715 -14.0353,-15.0198 2.9826,-37.8501 7.397,-52.00935 -13.9625,12.7725 -15.1362,42.04845 -15.4872,47.6175 -6.6068,-8.36085 -12.0246,-14.6553 -14.5626,-26.8137 -0.4958,-12.04815 13.6984,-30.69225 27.276,-17.10525 -19.3056,-13.52565 20.9479,-28.74315 12.0199,-23.1153 17.9546,-10.9911 18.7925,3.9525 -4.8543,12.7134 -11.9311,9.2076 10.2498,8.34165 21.4973,-2.3115 26.38,-4.1397 42.69,-34.03545 68.19,-28.43175 24.8962,-17.70975 -11.7819,-5.3832 5.3164,-25.4268 10.9667,-3.6327 35.8566,3.54135 37.2156,17.10525 28.4946,1.02705 9.408,-30.9924 33.97949,-14.1003 8.025,11.9112 32.59548,31.10235 8.5526,27.276 26.95891,16.99845 29.62891,-11.90145 12.0199,-26.3514 -20.9086,-4.7991 -36.61719,-22.3746 -22.1905,-39.9894 4.3177,-16.7436 -29.43919,7.2759 -19.64809,-19.87905 m 0.6935,0 c 13.0957,-8.27655 36.75149,-28.01445 6.7035,-31.43685 -15.9237,2.98875 -28.8768,-9.68205 -13.638,-26.3514 8.0743,-14.8917 31.13609,-12.6417 36.75309,-27.04485 -2.0941,-18.3951 -27.83429,-11.0334 -41.83859,-16.8741 -16.038,6.23625 -32.2524,-6.61305 -51.0846,-4.85415 -20.4757,-0.69885 -32.1763,-8.97076 -48.3109,-12.94456 -16.3253,0.2757 -39.3219,-2.6124 -44.3813,-23.34644 -7.0323,-17.50515 -20.0427,-19.6983 -24.5022,-33.05475 -19.448101,-12.27255 31.7307,-33.3366 -2.7738,-27.04485 -21.114901,1.68825 -39.147301,20.93235 -58.712801,20.1102 -13.6044,-5.5878 -28.4879,-8.9517 -40.6829,2.08035 -21.669,-8.3433 -47.523,3.16455 -46.6927,27.96945 -5.736,20.35965 -31.9191,9.70455 -46.2306,4.8543 13.9416,-27.97395 -51.787399,3.5661 -37.446799,-5.3166 0.5256,15.1671 -17.2194,31.36139 -2.0803,37.90904 18.772199,15.91126 -11.5101,24.88981 -21.7283,12.71341 -0.7357,-18.73156 -22.1178,-7.87605 -30.0499,6.24105 -12.9882,25.44105 27.9942,20.1288 6.9346,40.914 20.7828,20.86965 -7.8964,28.77585 -13.8691,9.24615 3.3837,-25.87245 -45.8216,1.6278 -38.3714,-6.0099 -12.6966,19.3845 -44.9533,-11.3616 -33.7483,-32.82375 -8.4344,-1.64325 -35.4584,-6.06825 -27.7383,13.40685 10.2162,23.7489 -9.2867,45.8976 -25.4268,61.02435 -8.25,13.0281 -15.0293,30.7572 -0.4623,41.60745 -6.5153,18.1101 -25.1747,12.36825 -21.266,-5.31645 -21.0244,-12.52695 -5.5915,-25.39845 -15.9495,-34.67295 -20.4484,3.84915 -31.3239,-14.11695 -43.4568,-27.50715 -17.4873,-10.21785 12.6974,-40.1226 -11.0952,-43.6878 -19.3693,5.17755 -10.8295,27.9339 -33.5172,32.59245 -20.6167,4.6221 18.8918,33.92145 -14.3314,38.1402 -4.6683,20.0004 -22.9331,25.39455 -33.2859,33.2859 -15.6399,-4.5906 -31.9011,-19.8696 -47.1552,-2.54265 -14.151,5.502 -28.4027,9.7347 -39.9894,11.7888 -4.5309,-2.40675 -2.627,4.77585 -7.397,4.1607 m 1.1559,-0.23115 c -9.8616,-28.4238 -15.5704,6.21015 -35.5975,6.2412 -16.5833,12.8463 6.3342,38.3298 21.9595,36.05985 -10.3206,19.1382 5.4689,30.75615 20.5725,43.6878 -6.858,9.9888 0.2169,37.17345 -19.1856,38.1402 -13.9552,15.6081 -29.8887,11.7264 -46.4617,17.56755 -18.3884,13.21635 19.111,20.2233 10.4019,38.1402 5.9604,23.9727 40.8426,4.34685 36.5221,29.81865 16.2447,20.5446 -15.2332,13.46085 -11.5576,35.8287 -22.8593,14.68785 10.8258,25.85985 -5.5478,41.3763 13.6929,13.9428 12.8034,30.1329 33.9795,31.20555 11.3826,4.1445004 44.2755,11.41920036 34.2107,13.6380004 1.665,5.6742 7.4046,-0.9159 10.4017,0"
         id="path1906"
         style="fill:none;stroke:#000000;stroke-width:4.5;stroke-linecap:butt;stroke-linejoin:miter;stroke-miterlimit:2;stroke-opacity:1" />
      <path
         d="m 141.23901,1104.8626 c -10.8204,-1.202 2.192,-10.7909 0,0 z m -3.5959,8.4994 c -48.184401,-10.8805 28.5522,14.5181 0,0 z m -35.4686,-9.6436 c -1.1046,16.1488 -0.8811,3.1564 0,0 z m -6.047501,197.9374 c -17.8379,-9.5742 -12.5264,21.6108 3.7593,15.5277 5.190701,-7.0969 2.398501,-11.0067 -3.7593,-15.5277 z m 77.638501,220.1665 c -26.0967,-3.1524 20.2599,7.0475 0,0 z m 38.7375,-59.0052 c -12.543,-0.077 6.9948,9.228 0,0 z m 318.0928,-500.05697 c -17.6247,10.5732 15.4674,4.1343 0,0 z m -20.5726,28.6629 c -8.0988,2.7114 4.2057,6.298 0,0 z m -27.5072,10.17067 c -26.6926,-1.82827 8.2023,20.774 0,0 z m 8.3216,11.3265 c -10.8636,21.0989 18.4962,6.0596 0,0 l 0,0 z m 5.3164,19.1856 c -0.2725,5.5662 -0.9019,1.8027 0,0 z m -242.7886,-54.73387 c 8.8627,13.657 3.9715,5.3637 0,0 z m 277.1067,248.24457 c -34.052,-5.0658 -10.6163,-44.2049 -2.5113,-63.8735 2.32,-25.4071 23.2836,-45.7321 36.9396,-68.6488 10.6626,-18.1665 36.6673,-50.4054 2.9419,-38.901 -25.7505,27.3793 -36.997,-14.7668 -40.2085,18.3064 -9.1016,13.6191 -18.7562,5.8764 -29.9113,3.5959 -20.8855,-15.7394 -38.1151,8.3945 -56.717,16.018 -22.2422,9.4723 -49.9476,9.5589 -70.2833,4.5766 -17.7118,2.1464 -56.3287,22.6203 -66.3604,-7.8456 -17.042,4.4843 -28.6872,-36.352 -46.0929,-16.9987 -26.5161,-11.2379 -17.5628,43.1983 -49.6886,20.2677 -15.0787,-28.5564 -11.9151,-22.2411 -25.1713,-3.269 -26.9724,2.4239 -27.89,31.4447 -30.0747,47.4005 0.3285,15.8086 23.7351,36.0019 38.2473,40.8624 26.9802,-12.7614 42.7699,13.5088 64.0722,16.6717 12.2226,15.4218 31.7881,29.7684 51.9769,33.9975 17.68699,17.0645 38.24361,32.9748 64.0722,28.1135 34.092,-1.0763 49.7741,32.1391 63.4185,55.2459 23.2836,10.0722 43.8864,9.7524 65.2995,13.0129 31.2192,20.6126 5.6022,-19.9461 22.6364,-36.8766 23.1615,-18.8241 19.4449,-14.2053 17.9794,-32.3629 -34.1214,-17.2013 1.7527,-16.2312 -10.5646,-29.2929 z m -87.5052,-222.0926 c -13.3011,-3.89107 9.8484,11.1083 0.8173,-0.1635 m -28.9306,4.9035 c -6.9869,-2.9136 1.1037,7.3353 0,0 z"
         id="path1968"
         style="fill:none;stroke:#000000;stroke-width:4.5;stroke-linecap:butt;stroke-linejoin:miter;stroke-miterlimit:2;stroke-opacity:1" />
      <path
         d="m -255.78459,526.92403 c -15.1203,18.9078 8.4426,14.1475 0,0 z m -26.7655,2.953 c -16.1438,-0.394 -0.8805,26.1819 -27,23.4845 -9.3321,11.784 -29.22,38.8389 -29.7657,35.3437 -23.6517,6.5534 -40.0589,28.9779 -65.6718,15.6563 -24.4272,-30.0458 -11.1561,-20.0457 -21.2813,8.8593 4.9602,12.5647 -9.8286,51.8229 6.5625,31.3594 -0.936,8.8401 30.1812,15.7797 23.8593,42.5156 15.2342,12.6982 7.8605,33.0447 12.422,52.6407 -20.1912,-0.2688 4.3992,35.29 -4.5938,35.953 34.7319,-14.0875 1.0434,30.3615 0.6563,30.375 6.8902,23.1318 -14.0706,44.3016 -7.5,62.7657 -1.2731,19.9643 -0.9842,38.3495 18.9375,51 11.2488,10.6989 8.1946,47.9817 26.1562,20.9063 11.9532,19.425 47.4545,-18.6348 38.5781,-9.4688 -2.2845,-25.0074 6.508,-42.1266 29.4375,-40.5468 19.44,4.038 46.3258,38.5848 45.75,2.2968 8.5804,-20.9047 8.0335,-44.3259 12.4219,-68.2969 -0.6637,-26.8695 5.4821,-49.4888 6.2343,-75.5156 0.048,-16.2601 -24.3996,-44.3221 4.2188,-61.125 19.4382,-13.7758 6.8382,-37.7152 -0.5963,-48.061 4.5267,-10.9554 -3.7404,-44.4935 -6.9037,-38.2359 0.909,-6.5607 -5.493,-10.83 -16.3593,-11.7656 20.5302,-25.8687 -11.9522,-8.4178 -3.1059,-25.9489 7.5759,-21.4509 -16.6148,-3.2384 -23.0504,-21.1604 -17.2318,-0.2053 -7.6938,-2.2419 -19.4062,-13.0314 z m 33.1405,1.922 c -13.4353,18.9099 11.6517,12.7209 0,0 z m -156.703,23.0625 c -0.5426,0 0.249,0.6471 0,0 z m -0.046,0.2812 c -12.219,5.139 -13.9883,40.2209 -6.375,13.9218 2.6664,-5.1279 20.2371,0.2807 6.375,-13.9218 z m 181.3125,19.4063 c -8.6807,6.1225 10.3762,6.9042 0,0 z m 11.2968,15.0468 c -17.6256,9.2526 6.0778,8.3077 0,0 z m -194.4845,307.2189 c -29.9311,4.6552 14.0153,32.2419 0,0 z m 10.4532,12.1875 c -0.6421,-0.1005 0.1245,0.291 0,0 z m 0,0.093 c -12.7759,39.4833 29.9354,15.721 2.6291,2.4082 l -0.8948,-1.4707 -1.7343,-0.9375 z"
         id="path1911"
         style="fill:none;stroke:#000000;stroke-width:4.5;stroke-linecap:butt;stroke-linejoin:miter;stroke-miterlimit:2;stroke-opacity:1;stroke-dasharray:none" />
      <path
         d="m 605.10891,766.84883 c 17.634,-38.3677 46.5257,24.2243 79.7634,-5.2303 5.9663,-19.0259 16.632,-46.2639 41.8431,-30.0747"
         id="path4653"
         style="fill:none;stroke:#000000;stroke-width:3;stroke-linecap:butt;stroke-linejoin:miter;stroke-miterlimit:3;stroke-opacity:1;stroke-dasharray:none" />
      <path
         d="m 622.10771,551.58583 c -12.8231,17.1331 -33.1379,2.049 -47.0735,15.2008"
         id="path5558"
         style="fill:none;stroke:#000000;stroke-width:3;stroke-linecap:butt;stroke-linejoin:miter;stroke-miterlimit:3;stroke-opacity:1;stroke-dasharray:none" />
      <path
         d="m 622.76151,551.09543 c 26.5737,27.3458 2.444,34.2681 46.4196,43.1507 0.9116,54.8395 82.089,4.0402 63.4185,61.3968 -0.075,18.924 12.6881,13.126 20.9216,30.135"
         id="path4663"
         style="fill:none;stroke:#000000;stroke-width:3;stroke-linecap:butt;stroke-linejoin:miter;stroke-miterlimit:2;stroke-opacity:1;stroke-dasharray:none" />
      <path
         d="m 521.74961,409.54806 c -18.0693,22.81717 15.0054,49.50617 -19.9409,54.59227 -25.4544,5.2945 15.7941,36.5757 10.7877,53.9383 28.7487,2.456 10.5908,45.005 40.2086,41.1893 7.5934,-2.2736 16.5442,4.2093 23.2099,7.5187"
         id="path4669"
         style="fill:none;stroke:#000000;stroke-width:3;stroke-linecap:butt;stroke-linejoin:miter;stroke-miterlimit:4;stroke-opacity:1;stroke-dasharray:none" />
      <path
         d="m 575.68791,566.13283 c 18.849,36.0535 -39.718,25.665 -23.8636,51.9769 14.7847,18.5295 14.5141,38.684 33.6706,57.8612 24.599,20.3563 28.605,33.7629 9.4802,58.1881 -1.5888,4.8408 -1.2557,10.0443 -1.9614,15.0374"
         id="path7330"
         style="fill:none;stroke:#000000;stroke-width:3;stroke-linecap:butt;stroke-linejoin:miter;stroke-miterlimit:3;stroke-opacity:1;stroke-dasharray:none" />
      <path
         d="m 331.4944,535.40423 c 27.32891,5.8304 16.23402,-65.1747 35.30501,-31.7091 15.8246,9.506 17.9802,-38.149 49.3619,-5.5573 22.3438,27.0195 46.6704,-6.1748 63.4183,0.6538 5.5994,-4.674 11.43567,-10.4646 19.51817,-10.4608"
         id="path8227"
         style="fill:none;stroke:#000000;stroke-width:3;stroke-linecap:butt;stroke-linejoin:miter;stroke-miterlimit:2;stroke-opacity:1;stroke-dasharray:none" />
      <path
         d="m 470.75331,382.74231 c -3.8169,25.62015 -47.28725,37.05435 -47.69125,56.34645"
         id="path9115"
         style="fill:none;stroke:#000000;stroke-width:3;stroke-linecap:butt;stroke-linejoin:miter;stroke-miterlimit:2;stroke-opacity:1;stroke-dasharray:none" />
      <path
         d="m 353.39661,232.69567 c -21.68461,15.4725 -51.3187,7.04145 -61.7839,31.3824 -7.0724,24.9417 -30.6264,15.44145 -41.8431,38.901 -7.2356,17.37539 8.2474,46.81934 30.0747,56.22659 -14.2247,24.6282 -17.0886,12.14385 -40.5356,12.7491 -24.5397,28.9359 26.489,17.18025 34.6514,39.88171 5.2963,12.20226 32.0121,46.74816 45.76589,20.92156 11.9523,12.4274 44.89411,7.3067 47.72731,37.5933 0.7614,7.4577 -8.801,18.54322 -5.0108,26.14442"
         id="path10004"
         style="fill:none;stroke:#000000;stroke-width:3;stroke-linecap:butt;stroke-linejoin:miter;stroke-miterlimit:2;stroke-opacity:1;stroke-dasharray:none" />
      <path
         d="m 277.55601,274.21192 c -18.2529,-27.5781 -36.9133,8.06835 -60.8032,8.8263 -20.4776,3.9732 -19.9317,47.36009 -40.2087,31.38224 3.3798,35.19075 -35.8698,17.24085 -25.1712,-8.49945 -29.8884,17.05185 -23.2374,-53.38964 -49.3617,-27.78629 -30.446401,3.91065 -7.658101,-42.71715 -34.978201,-28.4403 -29.3075,-0.825 10.9575,31.73805 -22.883,40.20855 -18.6339,11.8215 0.4785,24.90074 -25.825,36.61274"
         id="path10022"
         style="fill:none;stroke:#000000;stroke-width:3;stroke-linecap:butt;stroke-linejoin:miter;stroke-miterlimit:4;stroke-opacity:1;stroke-dasharray:none" />
      <path
         d="m 264.53921,238.79017 c 3.9733,10.4118 -10.1489,13.63425 -10.1708,22.65285"
         id="path10915"
         style="fill:none;stroke:#000000;stroke-width:3;stroke-linecap:butt;stroke-linejoin:miter;stroke-miterlimit:2;stroke-opacity:1;stroke-dasharray:none" />
      <path
         d="m 264.53921,237.40327 c -20.3921,-6.44175 -33.7067,-1.3257 -45.9995,-13.1757 -0.1776,-16.68165 -16.2529,-29.14305 -9.246,-45.53715"
         id="path10911"
         style="fill:none;stroke:#000000;stroke-width:3;stroke-linecap:butt;stroke-linejoin:miter;stroke-miterlimit:2;stroke-opacity:1;stroke-dasharray:none" />
      <path
         d="m 162.60081,37.22512 c 1.5468,13.96575 9.9149,27.38655 30.0498,15.25605 9.7427,-4.73205 -5.1859,-11.5575 4.6232,-18.4923"
         id="path16252"
         style="fill:none;stroke:#000000;stroke-width:3;stroke-linecap:butt;stroke-linejoin:miter;stroke-miterlimit:4;stroke-opacity:1;stroke-dasharray:none" />
      <path
         d="m 148.84731,35.72257 c 12.1268,-5.6472 13.7868,-16.9533 14.6781,2.6583"
         id="path16250"
         style="fill:none;stroke:#000000;stroke-width:4.5;stroke-linecap:butt;stroke-linejoin:miter;stroke-miterlimit:4;stroke-opacity:1;stroke-dasharray:none" />
      <path
         d="m 106.19961,74.67187 c 1.1924,-21.2424 5.7083,-29.6328 22.4219,-36.52215 4.9582,-5.52795 14.7567,0.2358 21.2659,-2.54265"
         id="path12693"
         style="fill:none;stroke:#000000;stroke-width:3;stroke-linecap:butt;stroke-linejoin:miter;stroke-miterlimit:4;stroke-opacity:1;stroke-dasharray:none" />
      <path
         d="m 148.73171,36.06937 c -1.7078,12.88755 12.3883,13.96335 14.7937,1.8492"
         id="path12695"
         style="fill:none;stroke:#000000;stroke-width:4.5;stroke-linecap:butt;stroke-linejoin:miter;stroke-miterlimit:4;stroke-opacity:1;stroke-dasharray:none" />
      <path
         d="m 105.73731,75.82762 c 22.9527,3.8499 7.364,-20.8749 27.0449,-4.16085 25.0812,18.3042 -8.1656,3.30225 -14.5626,22.653 14.8966,13.2027 23.2267,7.34685 26.3514,24.9645 17.781,-1.16535 22.962,25.92585 42.0697,13.1757 11.0444,-4.63605 11.3969,27.0402 19.4168,36.52215 1.4953,3.37065 1.5774,7.0761 3.9297,10.1706"
         id="path12691"
         style="fill:none;stroke:#000000;stroke-width:3;stroke-linecap:butt;stroke-linejoin:miter;stroke-miterlimit:4;stroke-opacity:1" />
      <path
         d="m 118.45071,100.32967 c -8.5207,21.0219 -5.5618,19.74615 -19.879201,37.90905 8.275401,15.4041 43.205001,12.0276 21.266101,25.65795 -14.7159,8.3094 -35.527301,4.1844 -40.220501,24.9645 7.9012,14.98125 7.8807,26.15775 3.4672,45.9993 -1.8909,3.48915 -4.7157,6.04245 -7.3968,8.5527"
         id="path12701"
         style="fill:none;stroke:#000000;stroke-width:3;stroke-linecap:butt;stroke-linejoin:miter;stroke-miterlimit:4;stroke-opacity:1;stroke-dasharray:none" />
      <path
         d="m 108.22221,75.45727 c -21.072701,-5.99925 -52.530401,-8.964 -59.495701,-34.65135 -10.1158,-16.86225 23.2449,-42.4343996 -14.7103,-35.6320496 -10.062,-13.6311 -30.0396,-22.7023504 -47.4005,-7.8456 1.4834,28.5776996 -34.5759,-3.339 -46.0927,13.7297996 -20.6439,-21.66345 -45.230099,6.2187 -60.149399,-26.80575 -5.853,-4.88595 -13.2866,-15.39885 -21.9023,-9.48"
         id="path17141"
         style="fill:none;stroke:#000000;stroke-width:3;stroke-linecap:butt;stroke-linejoin:miter;stroke-miterlimit:2;stroke-opacity:1;stroke-dasharray:none" />
      <path
         d="m -174.54549,18.57682 c 6.87,-25.3010996 -29.8924,-19.43159964 -29.094,-36.2859 -20.1579,-10.2525 -12.3853,-55.98945 18.6332,-42.4968 8.6949,18.4269 28.7491,26.43495 45.439,34.6512"
         id="path17143"
         style="fill:none;stroke:#000000;stroke-width:3;stroke-linecap:butt;stroke-linejoin:miter;stroke-miterlimit:2;stroke-opacity:1;stroke-dasharray:none" />
      <path
         d="m 133.72041,-135.06578 c -1.7157,-25.9971 -40.255801,-14.082 -61.457101,-19.94085 -28.1682,24.87315 -47.7801,6.1239 -77.5506,1.9614 -26.8494,-7.18785 -55.1839,21.21705 -72.1692,-1.9614 -5.8302,-17.56395 -18.825,23.1243 -33.670599,9.80685"
         id="path18044"
         style="fill:none;stroke:#000000;stroke-width:3;stroke-linecap:butt;stroke-linejoin:miter;stroke-miterlimit:2;stroke-opacity:1;stroke-dasharray:none" />
      <path
         d="m -108.83869,-144.54593 c -20.2869,-15.3492 -51.129,-18.37935 -68.9759,-32.36295 -18.4441,-30.6234 -15.883,12.6459 -36.9715,-4.84725 -7.6983,13.13325 -28.9143,-15.85605 -35.2731,0.59745 -24.2217,8.09805 -29.82,41.06625 -21.2484,55.89975 -12.369,10.2534 12.0937,31.9548 -17.6526,23.86365"
         id="path18057"
         style="fill:none;stroke:#000000;stroke-width:3;stroke-linecap:butt;stroke-linejoin:miter;stroke-miterlimit:2;stroke-opacity:1;stroke-dasharray:none" />
      <path
         d="m -288.30639,-101.39528 c -13.2279,34.3947 41.7069,9.5115 40.8624,34.9782 -29.1544,33.83955 32.46358,2.757357 32.02688,26.039757"
         id="path18061"
         style="fill:none;stroke:#000000;stroke-width:3;stroke-linecap:butt;stroke-linejoin:miter;stroke-miterlimit:2;stroke-opacity:1;stroke-dasharray:none" />
      <path
         d="m -489.34939,5.8277204 c 25.2489,7.9060496 50.0227,0.23715 45.439,-29.0940004 14.8397,-18.1665 21.3042,-52.3821 46.4196,-37.59345 19.7129,-13.8873 47.5782,3.5517 66.0336,-18.96015 2.5269,-42.3522 30.07019,9.764442 43.19999,-4.354458"
         id="path18067"
         style="fill:none;stroke:#000000;stroke-width:3;stroke-linecap:butt;stroke-linejoin:miter;stroke-miterlimit:2;stroke-opacity:1;stroke-dasharray:none" />
      <path
         d="m -568.45899,-251.44193 c 23.9963,4.25325 39.539,-25.86465 62.1108,-15.3642 24.1797,8.01285 51.0467,-9.5901 43.8045,-34.3245 -11.6515,-11.56335 -8.0679,-27.5871 -2.9421,-40.8624"
         id="path18964"
         style="fill:none;stroke:#000000;stroke-width:3;stroke-linecap:butt;stroke-linejoin:miter;stroke-miterlimit:2;stroke-opacity:1;stroke-dasharray:none" />
      <path
         d="m 193.86981,-480.92514 c 0.9714,24.20686 -18.4273,26.38396 -33.3438,42.16996 -33.8064,20.89845 -5.6545,39.3765 -3.2689,60.80325 -18.4383,24.6807 -1.0554,51.5034 24.8443,57.86115 15.431,-1.3713 47.5764,-18.3108 43.4777,4.57665 4.5145,10.16085 8.3623,20.73975 14.0566,29.74785"
         id="path19851"
         style="fill:none;stroke:#000000;stroke-width:3;stroke-linecap:butt;stroke-linejoin:miter;stroke-miterlimit:2;stroke-opacity:1;stroke-dasharray:none" />
      <path
         d="m 154.64201,-489.75143 c -14.8224,26.94165 -38.2362,9.30584 -52.9578,2.28839 3.8923,30.84676 -44.237901,27.44611 -25.498101,46.09276 -30.8622,22.77885 20.2299,34.4805 3.269,58.84185 -36.2009,-7.08975 -21.3612,48.71205 -49.0349,28.1133 -19.5061,-0.015 -35.6688,16.2867 -44.1313,27.1326 -4.6107,26.3217 -19.3973,42.76065 -43.1507,35.63205 -4.7443,-24.24495 -6.2818,-46.63095 -22.2292,-5.2305 -17.4056,19.5624 -19.871,48.8109 -1.9614,62.11095 -18.0641,19.7316 37.1152,22.97745 36.2859,43.15065 17.8174,14.4144 28.9797,5.8854 40.5354,24.51735 6.1119,8.32605 21.3255,5.2434 20.5947,19.28715"
         id="path2876"
         style="fill:none;stroke:#000000;stroke-width:3;stroke-linecap:butt;stroke-linejoin:miter;stroke-miterlimit:2;stroke-opacity:1;stroke-dasharray:none" />
      <path
         d="m -122.56849,-461.31113 c 27.853599,11.98185 35.332899,27.5379 18.9601,45.11205 12.958399,26.25405 -18.5148,48.4656 -9.807,71.9178 -8.0703,28.64985 18.052499,34.03065 40.208599,21.5754 l 3.5959,-1.3077 3.5958,-0.32685"
         id="path3779"
         style="fill:none;stroke:#000000;stroke-width:3;stroke-linecap:butt;stroke-linejoin:miter;stroke-miterlimit:2;stroke-opacity:1;stroke-dasharray:none" />
      <path
         d="m -356.62839,-375.99053 c -4.9837,32.97885 -28.1172,68.31885 -3.9228,95.4546 36.7586,24.01635 15.3987,78.64485 -10.4607,50.3424 -30.2064,3.3327 6.8025,90.58035 43.8045,61.4571 0.117,30.15705 38.6001,36.4179 38.574,67.995"
         id="path4670"
         style="fill:none;stroke:#000000;stroke-width:3;stroke-linecap:butt;stroke-linejoin:miter;stroke-miterlimit:2;stroke-opacity:1;stroke-dasharray:none" />
      <path
         d="m -145.66369,-478.89623 c 0.3451,0.16785 -0.1275,0.2121 0,0 z"
         id="path21055"
         style="fill:#000000;fill-opacity:1;fill-rule:evenodd;stroke:none" />
      <path
         d="m 297.91451,-367.89623 c 0.7645,0.8295 -0.6579,0.51975 0,0 z"
         id="path21053"
         style="fill:#000000;fill-opacity:1;fill-rule:evenodd;stroke:none" />
      <path
         d="m -310.71049,-351.58373 c 0.129,0.17295 -0.311,0.0975 0,0 z"
         id="path21051"
         style="fill:#000000;fill-opacity:1;fill-rule:evenodd;stroke:none" />
      <path
         d="m -323.13249,-332.69303 c 0.3357,0.078 -0.3228,0.3807 0,0 z"
         id="path21049"
         style="fill:#000000;fill-opacity:1;fill-rule:evenodd;stroke:none" />
      <path
         d="m -315.02299,-324.02123 c 0.063,0.21615 -0.6354,-0.0675 0,0 z"
         id="path21047"
         style="fill:#000000;fill-opacity:1;fill-rule:evenodd;stroke:none" />
      <path
         d="m 250.05501,-295.61498 c 0.3287,0.2277 -0.1125,0.1425 0,0 z"
         id="path21045"
         style="fill:#000000;fill-opacity:1;fill-rule:evenodd;stroke:none" />
      <path
         d="m -593.69499,-288.86498 c 0.399,0.6192 -0.2688,2.49165 0,0 z"
         id="path21043"
         style="fill:#000000;fill-opacity:1;fill-rule:evenodd;stroke:none" />
      <path
         d="m 152.74251,-263.31803 c 0.3018,-0.19095 0.036,0.4305 0,0 z"
         id="path21039"
         style="fill:#000000;fill-opacity:1;fill-rule:evenodd;stroke:none" />
      <path
         d="m 132.39881,-248.69303 c 0.5334,0.3078 -0.05,0.189 0,0 z"
         id="path21037"
         style="fill:#000000;fill-opacity:1;fill-rule:evenodd;stroke:none" />
      <path
         d="m 144.07071,-248.41178 c 0.8489,0.1065 -0.4353,1.27185 0,0 z"
         id="path21033"
         style="fill:#000000;fill-opacity:1;fill-rule:evenodd;stroke:none" />
      <path
         d="m 151.61751,-139.14623 c 1.0713,1.23075 -4.0515,3.7365 0,0 z"
         id="path21031"
         style="fill:#000000;fill-opacity:1;fill-rule:evenodd;stroke:none" />
      <path
         d="m -600.39799,-72.67748 c -0.446,0.5838 -2.5458,1.164 0,0 z"
         id="path21029"
         style="fill:#000000;fill-opacity:1;fill-rule:evenodd;stroke:none" />
      <path
         d="m -535.33549,3.3069704 c 0.1455,-0.0585 -0.09,0.2508 0,0 z"
         id="path21027"
         style="fill:#000000;fill-opacity:1;fill-rule:evenodd;stroke:none" />
      <path
         d="m 298.05501,537.49453 c -0.015,0.3993 -0.3123,-0.111 0,0 z"
         id="path21025"
         style="fill:#000000;fill-opacity:1;fill-rule:evenodd;stroke:none" />
      <path
         d="m 305.46131,537.91633 c 0.7402,0.5356 -0.1005,0.9283 0,0 z"
         id="path21023"
         style="fill:#000000;fill-opacity:1;fill-rule:evenodd;stroke:none" />
      <path
         d="m 373.19571,611.04133 c 1.9881,2.4424 -2.151,2.1856 0,0 z"
         id="path21021"
         style="fill:#000000;fill-opacity:1;fill-rule:evenodd;stroke:none" />
      <path
         d="m 455.88321,640.19753 c 0.7587,0.09 -1.1031,0.1677 0,0 z"
         id="path21017"
         style="fill:#000000;fill-opacity:1;fill-rule:evenodd;stroke:none" />
      <path
         d="m 456.96131,644.27573 c -0.135,0.5396 -0.8351,-0.2533 0,0 z"
         id="path21015"
         style="fill:#000000;fill-opacity:1;fill-rule:evenodd;stroke:none" />
      <path
         d="m 401.13321,652.47883 c -11.7192,-2.1525 -18.6322,12.4743 -2.3907,7.828 5.9564,2.4974 8.4299,-8.0259 2.3907,-7.828 z"
         id="path21013"
         style="fill:#000000;fill-opacity:1;fill-rule:evenodd;stroke:none" />
      <path
         d="m 393.39881,657.63503 c 1.3464,-0.046 -0.054,0.9 0,0 z"
         id="path21011"
         style="fill:#000000;fill-opacity:1;fill-rule:evenodd;stroke:none" />
      <path
         d="m 499.43001,688.47883 c -0.069,0.3645 -0.897,-0.095 0,0 z"
         id="path21009"
         style="fill:#000000;fill-opacity:1;fill-rule:evenodd;stroke:none" />
      <path
         d="m 727.52381,959.08823 c 0.2208,0.6123 -0.3795,0.1125 0,0 z"
         id="path20978"
         style="fill:#000000;fill-opacity:1;fill-rule:evenodd;stroke:none" />
      <rect
         width="1637.4979"
         height="2117.99"
         x="-647.32037"
         y="-583.7757"
         id="rect3474"
         style="fill:none;stroke:#000000;stroke-width:5;stroke-miterlimit:4;stroke-opacity:1;stroke-dasharray:none" />
    </g>
    <path
       d="m 1007.6912,1035.2828 c 1.6004,-3.5478 10.1103,5.2755 11.474,1.6474 0,-2.5777 10.4128,-2.131 5.5168,-9.6047 2.3014,-1.4998 7.7495,-5.1886 10.5395,-5.6584 5.9112,-1.673 -3.8773,-14.655 2.0339,-16.328 9.6654,2.4275 14.0446,-13.46318 22.998,-3.2037 8.1081,2.7382 5.7738,24.1817 11.8474,22.8524"
       id="path3250"
       style="color:#000000;fill:none;stroke:#000000;stroke-width:3;stroke-linecap:butt;stroke-linejoin:round;stroke-miterlimit:4;stroke-opacity:1;stroke-dasharray:none;stroke-dashoffset:0;marker:none;visibility:visible;display:inline;overflow:visible;enable-background:accumulate" />
  </g>
  <path
     d="m 82.6574,358.78378 c -1.36203,-1.36203 -1.486956,-1.84542 -1.198705,-4.6383 0.176983,-1.71479 0.773987,-3.99227 1.326677,-5.06105 1.393194,-2.69414 6.450962,-7.92429 8.4731,-8.76189 1.808547,-0.74913 3.86044,-4.78208 4.514692,-8.87355 0.34187,-2.13794 0.396024,-2.17905 2.19225,-1.6639 1.012946,0.29051 4.016706,0.5282 6.675026,0.5282 11.08586,0 17.07156,-4.97569 17.4854,-14.53497 0.14942,-3.45131 0.45498,-4.40451 2.26737,-7.07311 1.15208,-1.69633 3.34546,-5.18693 4.87418,-7.75689 5.52228,-9.28359 9.95232,-12.01611 15.83719,-9.76866 2.55936,0.97743 2.72754,0.97096 5.14157,-0.19765 3.1199,-1.51032 9.06528,-2.39152 16.31338,-2.41791 5.75558,-0.021 11.69385,-1.09392 14.72268,-2.66019 3.32726,-1.72059 5.80548,-4.3851 6.1847,-6.64961 0.97746,-5.83695 2.23475,-7.49782 4.90684,-6.48189 0.80943,0.30774 3.80868,2.04105 6.66501,3.85179 4.00647,2.53986 5.86037,3.35634 8.11217,3.57271 1.6675,0.16023 3.2492,0.006 3.68941,-0.35904 0.56031,-0.46502 1.54003,-0.40794 3.59059,0.20919 1.55101,0.46678 4.57961,1.0123 6.73021,1.21226 8.03383,0.74697 12.43705,2.53661 12.43705,5.05491 0,0.60453 -0.92619,2.4456 -2.0582,4.09125 -1.13471,1.64958 -2.05821,3.72176 -2.05821,4.61829 0,2.91272 1.09553,3.24008 10.85332,3.24308 10.75423,0.003 11.78585,0.40629 12.38428,4.83759 0.67586,5.00476 1.97184,8.07703 4.41243,10.4602 1.28752,1.25724 2.34095,2.59343 2.34095,2.96932 0,1.75741 2.98892,4.12541 8.59544,6.80982 6.80692,3.25917 8.45826,4.86495 8.45826,8.22493 0,1.25012 -0.12913,2.27293 -0.28696,2.27293 -0.15782,0 -2.59451,-1.32313 -5.41486,-2.94029 -5.56205,-3.18923 -8.31286,-3.73886 -8.82925,-1.76417 -0.16916,0.64686 -0.37396,1.17611 -0.4551,1.17611 -0.65199,0 -14.5251,-8.73676 -16.67557,-10.50164 -1.50682,-1.23664 -4.0594,-3.00005 -5.67238,-3.91869 -1.61299,-0.91863 -5.559,-3.6248 -8.76893,-6.0137 -3.20992,-2.38891 -7.41383,-5.13984 -9.34202,-6.11319 l -3.50581,-1.76972 -1.83867,1.77362 c -2.12125,2.04621 -2.27713,2.00159 -7.29949,-2.08918 -3.71481,-3.02576 -6.19407,-4.14062 -10.30394,-4.63343 -1.67922,-0.20135 -4.50856,-0.89126 -6.28744,-1.53312 -4.12793,-1.48947 -12.18757,-2.02792 -16.5976,-1.10886 -3.85878,0.80418 -8.18728,2.93043 -10.74711,5.27921 -0.9703,0.8903 -2.87494,1.93371 -4.23254,2.31869 -3.6776,1.04288 -5.71504,3.45835 -7.54043,8.93951 -1.7837,5.35596 -4.94435,9.36642 -7.39489,9.38318 -3.83826,0.0263 -9.45966,5.81105 -11.12028,11.4435 -2.01585,6.83729 -4.21848,10.89274 -7.50909,13.82561 -5.99583,5.344 -13.28469,8.46877 -28.947405,12.40989 -10.965694,2.75924 -13.013256,2.86485 -15.099295,0.77881 z"
     id="path3399"
     style="fill:#ff0000;fill-opacity:1;fill-rule:evenodd;stroke:#ff0000;stroke-width:1.17611682;stroke-linecap:round;stroke-linejoin:round;stroke-miterlimit:4;stroke-opacity:1;stroke-dasharray:none;stroke-dashoffset:0" />
  <text
     x="-499.06702"
     y="1921.9982"
     transform="matrix(0.93489508,-0.35492419,0.35492419,0.93489508,0,0)"
     id="text4194"
     xml:space="preserve"
     style="font-size:184.06698608px;font-style:normal;font-variant:normal;font-weight:normal;font-stretch:normal;fill:#000000;fill-opacity:1;stroke:none;font-family:DejaVu Sans;-inkscape-font-specification:Andale Mono"><tspan
       x="-499.06702"
       y="1921.9982"
       id="tspan4196">Imperia</tspan></text>
  <text
     x="-91.092384"
     y="1736.5194"
     transform="matrix(0.69729909,-0.71678029,0.71678029,0.69729909,0,0)"
     id="text4194-9"
     xml:space="preserve"
     style="font-size:258.05383301px;font-style:normal;font-variant:normal;font-weight:normal;font-stretch:normal;fill:#000000;fill-opacity:1;stroke:none;font-family:DejaVu Sans;-inkscape-font-specification:Andale Mono"><tspan
       x="-91.092384"
       y="1736.5194"
       id="tspan4196-9">Savona</tspan></text>
  <text
     x="2373.2197"
     y="157.23714"
     transform="matrix(0.98747736,0.15776078,-0.15776078,0.98747736,0,0)"
     id="text4194-0"
     xml:space="preserve"
     style="font-size:253.84928894px;font-style:normal;font-variant:normal;font-weight:normal;font-stretch:normal;fill:#000000;fill-opacity:1;stroke:none;font-family:DejaVu Sans;-inkscape-font-specification:Andale Mono"><tspan
       x="2373.2197"
       y="157.23714"
       id="tspan4196-4">Genova</tspan></text>
  <text
     x="3458.5156"
     y="-1365.3291"
     transform="matrix(0.80415687,0.59441713,-0.59441713,0.80415687,0,0)"
     id="text4194-02"
     xml:space="preserve"
     style="font-size:157.9650116px;font-style:normal;font-variant:normal;font-weight:normal;font-stretch:normal;fill:#000000;fill-opacity:1;stroke:none;font-family:DejaVu Sans;-inkscape-font-specification:Andale Mono"><tspan
       x="3458.5156"
       y="-1365.3291"
       id="tspan4196-8">La Spezia</tspan></text>
</svg>
